<?xml version="1.0" encoding="utf-8"?>
<!-- Generator: Adobe Illustrator 23.0.2, SVG Export Plug-In . SVG Version: 6.00 Build 0)  -->
<svg version="1.1" id="Layer_1" xmlns="http://www.w3.org/2000/svg" xmlns:xlink="http://www.w3.org/1999/xlink" x="0px" y="0px"
	 viewBox="0 0 1000 1000" style="enable-background:new 0 0 1000 1000;" xml:space="preserve">
<style type="text/css">
	.st0{fill:#FFFFFF;}
</style>
<g>
	<path class="st0" d="M500.38,15.96C233.22,15.76,16.69,231.71,16.27,498.78C15.84,766.33,232.15,983.23,499.6,983.44
		c267.24,0.21,483.94-216.15,484.13-483.37C983.93,232.73,767.7,16.16,500.38,15.96z M99,500c0-220.91,179.09-400,400-400
		s400,179.09,400,400S719.91,900,499,900S99,720.91,99,500z"/>
	<path class="st0" d="M359.71,687.4c0.01,14.38,0.25,28.77,0.22,43.16c-0.01,9.01-1.57,10.43-10.47,10.43
		c-29.57,0.01-59.15,0.01-88.72,0c-8.9-0.01-9.91-1.02-9.91-10.07c-0.01-50.96-0.01-101.91-0.01-152.87h0.07
		c0-50.76,0-101.51,0.01-152.27c0-10.1,0.44-10.57,10.39-10.57c30.56-0.01,61.11,0.05,91.67-0.1c5.41-0.02,6.84,2.49,6.84,7.36
		C359.71,510.79,359.71,599.09,359.71,687.4z"/>
	<path class="st0" d="M365.31,299.68c8.93,32.68-11.06,64.05-45.04,70.55c-14.65,2.79-29.07,1.87-42.84-4.15
		c-23.37-10.23-35.9-33.43-32.44-59.52c3.17-23.76,22.14-43.04,46.3-46.9c4.9-0.79,9.88-1.14,14.82-1.69
		C335.12,258.3,358.46,274.61,365.31,299.68z"/>
	<path class="st0" d="M749.06,729.98c0.34,10.04-0.43,10.84-10.73,10.85c-28.99,0.01-57.96,0.02-86.94,0.04
		c-10.06,0-11.33-1.21-11.32-11.4c0.07-51.77,0.35-103.53,0.14-155.3c-0.05-11.73-0.67-23.65-2.88-35.14
		c-5.31-27.73-24.42-44.85-49.83-46.19c-24.08-1.26-48.86,16.41-56.6,41.06c-2.18,6.94-3.6,14.46-3.63,21.72
		c-0.26,58.56-0.13,117.13-0.08,175.69c0.01,8.66-0.76,9.57-9.56,9.57c-29.78,0.04-59.55,0.05-89.34,0.05
		c-8.75-0.01-9.97-1.2-9.95-10.1c0.13-102.13,0.26-204.26,0.42-306.39c0.01-8.99,1.56-9.62,10.69-9.52
		c29.37,0.35,58.74,0.29,88.11,0.01c8.15-0.08,9.93,1.21,9.77,9.23c-0.22,11.18-0.06,22.35-0.06,35.47c2.93-3.83,4.88-6.25,6.7-8.78
		c24.44-33.84,58.46-46.03,98.82-43.36c21.37,1.4,41.79,6.54,60.06,18.3c29.2,18.79,45.1,46.55,51.28,79.8
		c3.26,17.56,4.76,35.65,4.93,53.52c0.53,54.55,0.04,109.13-0.06,163.68C748.98,725.19,748.98,727.58,749.06,729.98z"/>
</g>
</svg>
