<svg id="Layer_1" data-name="Layer 1" xmlns="http://www.w3.org/2000/svg" viewBox="0 0 77.70451 77.70451"><defs><style>.cls-1{fill:none;stroke:#fff;stroke-miterlimit:10;stroke-width:6px;}.cls-2{fill:#fff;}</style></defs><title>buton mail</title><rect class="cls-1" x="3" y="3" width="71.70451" height="71.70451" rx="35.85222"/><path class="cls-2" d="M116.71516,63.71925a6.70375,6.70375,0,0,1-.43106.52194q-10.14486,10.21259-20.244,20.37988c-1.31591,1.31619-2.6551,1.36162-3.92613.068-6.78568-6.85369-13.52592-13.6848-20.28888-20.53862a5.43634,5.43634,0,0,1-.36292-.43121Z" transform="translate(-55.08876 -43)"/><path class="cls-2" d="M116.46528,99.98525H71.43946c5.01543-5.12887,9.94-10.14444,14.84211-15.16.95327.90784,1.86084,1.74753,2.72352,2.63265a7.31146,7.31146,0,0,0,10.03086.02272c.83969-.86241,1.67938-1.72482,2.60994-2.65537C106.57072,89.86353,111.47257,94.879,116.46528,99.98525Z" transform="translate(-55.08876 -43)"/><path class="cls-2" d="M83.44474,81.807c-4.92484,5.03814-9.8494,10.07629-14.91026,15.25073V66.69225C73.5499,71.77582,78.47446,76.76867,83.44474,81.807Z" transform="translate(-55.08876 -43)"/><path class="cls-2" d="M119.34754,67.41849V97.035c-4.99271-5.1063-9.87183-10.09915-14.75152-15.09186Q112.05144,74.58994,119.34754,67.41849Z" transform="translate(-55.08876 -43)"/></svg>