<svg id="Layer_1" data-name="Layer 1" xmlns="http://www.w3.org/2000/svg" viewBox="0 0 78.05913 78.05913"><defs><style>.cls-1{fill:none;stroke:#fff;stroke-miterlimit:10;stroke-width:6px;}.cls-2{fill:#fff;}</style></defs><title>buton insta</title><rect class="cls-1" x="3" y="3" width="72.05913" height="72.05913" rx="36.02953"/><path class="cls-2" d="M89.98881,112.48483c-3.41988,0-6.83978.00668-10.25965-.00145a12.097,12.097,0,0,1-12.21538-12.25515q-.01032-10.22029-.00012-20.44059A12.09187,12.09187,0,0,1,79.78938,67.51682q10.18365-.00934,20.3673-.00039A12.09582,12.09582,0,0,1,112.48607,79.8099q.01068,10.18229.00015,20.36459A12.09622,12.09622,0,0,1,100.17246,112.484Q95.08064,112.49128,89.98881,112.48483Zm.02756-8.98073a13.50433,13.50433,0,1,0-13.5229-13.46621A13.58723,13.58723,0,0,0,90.01637,103.5041Zm11.50172-28.29745a3.31073,3.31073,0,1,0,3.34157-3.31086A3.3318,3.3318,0,0,0,101.51809,75.20665Z" transform="translate(-50.97043 -50.97043)"/><path class="cls-2" d="M98.81267,89.96734a8.81272,8.81272,0,1,1-8.86788-8.7787A8.781,8.781,0,0,1,98.81267,89.96734Z" transform="translate(-50.97043 -50.97043)"/></svg>