<svg id="Layer_1" data-name="Layer 1" xmlns="http://www.w3.org/2000/svg" viewBox="0 0 77.5813 77.5813"><defs><style>.cls-1{fill:none;stroke:#fff;stroke-miterlimit:10;stroke-width:6px;}.cls-2{fill:#fefefe;}</style></defs><title>buton locatie</title><rect class="cls-1" x="3" y="3" width="71.5813" height="71.5813" rx="35.79061"/><path class="cls-2" d="M105.51916,86.72282a8.145,8.145,0,0,0,.16285-1.78171,5.68168,5.68168,0,0,1-.00225-1.17257,9.1671,9.1671,0,0,0-.19134-1.981,15.538,15.538,0,0,0-10.17734-12.15,13.46656,13.46656,0,0,0-4.78406-.9068,4.49482,4.49482,0,0,1-1.05565-.00026,7.61267,7.61267,0,0,0-1.6651.12861A15.58462,15.58462,0,0,0,75.2145,79.12477a13.29522,13.29522,0,0,0-.89724,4.70183,5.02635,5.02635,0,0,1-.00026,1.11411,13.61764,13.61764,0,0,0,.73667,4.28886,31.12567,31.12567,0,0,0,3.53155,7.02707,52.09352,52.09352,0,0,0,10.46233,11.39589,1.48363,1.48363,0,0,0,1.96458-.04716,57.03737,57.03737,0,0,0,7.55431-7.49452,37.26021,37.26021,0,0,0,6.03014-9.90378,13.49187,13.49187,0,0,0,.9101-3.38564c-.04973-.05824-.01143-.13214-.03457-.19514C105.49617,86.6544,105.47451,86.70481,105.51916,86.72282ZM89.997,90.99943a7.83674,7.83674,0,1,1,7.83878-7.81851A7.85423,7.85423,0,0,1,89.997,90.99943Z" transform="translate(-51.20935 -51.20935)"/><path class="cls-2" d="M90,101.97079a36.99016,36.99016,0,0,1,7.261.66028,17.04489,17.04489,0,0,1,3.53537,1.08284,6.47883,6.47883,0,0,1,1.62457,1.03467,2.72193,2.72193,0,0,1,1.00055,1.87479,2.8586,2.8586,0,0,1-.86964,2.00582,6.884,6.884,0,0,1-1.58353,1.23175,15.86262,15.86262,0,0,1-3.53721,1.45376,28.08347,28.08347,0,0,1-3.69273.727c-1.243.14846-2.49053.20658-3.73835.23331a29.03,29.03,0,0,1-7.43208-.95612,15.64484,15.64484,0,0,1-3.539-1.45266A6.89018,6.89018,0,0,1,77.4444,108.633a2.86385,2.86385,0,0,1-.87062-2.0096,2.72592,2.72592,0,0,1,1.00236-1.87773,6.48185,6.48185,0,0,1,1.62586-1.03489,16.95228,16.95228,0,0,1,3.53669-1.08106A37.054,37.054,0,0,1,90,101.97079Zm0,0c-1.21433.02678-2.42823.08345-3.63342.228a26.672,26.672,0,0,0-3.56156.7035,14.66335,14.66335,0,0,0-3.30966,1.36818,5.77106,5.77106,0,0,0-1.34082,1.05409,1.83277,1.83277,0,0,0-.576,1.29879c.08483.867,1.09354,1.56849,2.08986,2.02266a16.42249,16.42249,0,0,0,3.30738.99659,39.34215,39.34215,0,0,0,14.04941.00415,16.13359,16.13359,0,0,0,3.30913-.99547c.99656-.455,2.007-1.1571,2.09186-2.02793a1.83764,1.83764,0,0,0-.5778-1.30174,5.77584,5.77584,0,0,0-1.34211-1.0543,14.59424,14.59424,0,0,0-3.311-1.36641,26.55831,26.55831,0,0,0-3.56186-.70235C92.42824,102.05407,91.21433,101.99748,90,101.97079Z" transform="translate(-51.20935 -51.20935)"/></svg>