<svg id="Layer_1" data-name="Layer 1" xmlns="http://www.w3.org/2000/svg" viewBox="0 0 78.23057 78.23057"><defs><style>.cls-1{fill:none;stroke:#fff;stroke-miterlimit:10;stroke-width:6px;}.cls-2{fill:#fff;}</style></defs><title>buton fb</title><rect class="cls-1" x="3" y="3" width="72.23057" height="72.23057" rx="36.11525"/><path class="cls-2" d="M91.06155,109.00458q.02047-9.47618-.00187-18.95235a.34236.34236,0,0,1,.34253-.34334h6.26031c.20264,0,.296-.03108.31157-.26471.10892-.90326.23363-1.79092.35814-2.67858.10893-.87208.218-1.75965.32716-2.63182.10874-.80972.21785-1.61954.327-2.49161h-.35815c-2.41361,0-4.81165,0-7.22524.01558a.3404.3404,0,0,1-.3432-.34343c.01537-1.801,0-3.602.031-5.40294a4.88066,4.88066,0,0,1,.28021-1.41709,2.6142,2.6142,0,0,1,2.22719-1.6663,10.5213,10.5213,0,0,1,1.57268-.109c1.2459-.01558,2.5072-.01558,3.75311,0,.249,0,.34255-.04676.34255-.32706V65.77345c0-.24913-.09352-.31148-.31138-.32707a53.17633,53.17633,0,0,0-6.49394-.26471A10.52358,10.52358,0,0,0,87.05751,66.739a8.92768,8.92768,0,0,0-3.831,5.23245,14.75168,14.75168,0,0,0-.51384,3.95557c0,1.79116,0,3.598.01561,5.38916a.33835.33835,0,0,1-.34252.34163c-2.08708-.01559-4.17436,0-6.24584-.0156a.32292.32292,0,0,0-.32611.32659q.0234,3.71429,0,7.42866c0,.26481.09353.32706.34275.31148h6.26012a.31139.31139,0,0,1,.31154.31228q-.02235,9.49793-.00187,18.99585a.84381.84381,0,0,0,.845.84154l6.64835-.01244A.84382.84382,0,0,0,91.06155,109.00458Z" transform="translate(-48.76943 -48.90944)"/></svg>