<svg id="Layer_1" data-name="Layer 1" xmlns="http://www.w3.org/2000/svg" viewBox="0 0 78.00592 78.00592"><defs><style>.cls-1{fill:none;stroke:#fff;stroke-miterlimit:10;stroke-width:6px;}.cls-2{fill:#fff;}</style></defs><title>buton twitter</title><rect class="cls-1" x="3" y="3" width="72.00592" height="72.00592" rx="36.00292"/><path class="cls-2" d="M91.874,106.38866A27.177,27.177,0,0,1,69.15344,105.166c-.47088-.24531-.91853-.53538-1.37467-.8085-.039-.02338-.06074-.07569-.15438-.198A18.6381,18.6381,0,0,0,81.0097,100.3693a9.01983,9.01983,0,0,1-2.3949-.45189A9.18787,9.18787,0,0,1,72.676,94.352c-.15309-.37363-.0176-.47228.33131-.41085a9.03849,9.03849,0,0,0,2.7164-.0018.9135.9135,0,0,0,.4881-.12183c.06766-.06608.13651-.08524.2079-.00531-.08289-.10039-.21358-.11942-.3164-.18589a9.29674,9.29674,0,0,1-6.791-8.70193c-.00163-.09822.01159-.19669.02191-.35768a9.80678,9.80678,0,0,0,3.96047,1.1116,9.675,9.675,0,0,1-3.57663-5.152,11.24625,11.24625,0,0,1-.29071-1.447,9.2808,9.2808,0,0,1,.921-5.19151c.25947-.50619.27232-.52077.64781-.085a26.95458,26.95458,0,0,0,6.91288,5.75577,25.00334,25.00334,0,0,0,10.27189,3.332c.35809.03444.71657.066,1.0738.10795.29617.03481.39369-.06447.33984-.37313a9.249,9.249,0,0,1,.38459-4.80169,9.22259,9.22259,0,0,1,9-6.13263,9.14,9.14,0,0,1,6.28985,2.75371c.27358.3316.54987.05754.82517.00369a19.75751,19.75751,0,0,0,5.20625-2.06473,9.25133,9.25133,0,0,1-3.4535,4.74379c-.06333.051-.19735.098-.14978.17538.08342.13576.23414.08958.36422.04114a21.69853,21.69853,0,0,0,2.97183-.74,4.51668,4.51668,0,0,0,1.025-.36345c.09159-.046.26645-.24913.31731.05673l-.00024.00055c-.09009.14679-.21547.26759-.30528.41458a16.36777,16.36777,0,0,1-3.19037,3.39889,2.93666,2.93666,0,0,1-.562.44663c-.34654.163-.38733.41967-.37412.75225a24.01571,24.01571,0,0,1-.65815,6.53109,27.06684,27.06684,0,0,1-5.4977,11.20351,24.97994,24.97994,0,0,1-9.02843,6.9729c-.12466.05623-.25347.10326-.38035.15459C92.22616,106.28069,92.03027,106.28847,91.874,106.38866Z" transform="translate(-50.99704 -50.99704)"/></svg>