<svg id="Layer_1" data-name="Layer 1" xmlns="http://www.w3.org/2000/svg" viewBox="0 0 946.85783 946.85783"><defs><style>.cls-1{fill:#5e7cbe;}.cls-2{fill:#fff;}</style></defs><title>2email</title><path class="cls-1" d="M473.42846,0h.00095A473.42843,473.42843,0,0,1,946.85783,473.42843v.001A473.42843,473.42843,0,0,1,473.4294,946.85783h-.001A473.42843,473.42843,0,0,1,0,473.4294v-.00095A473.42846,473.42846,0,0,1,473.42846,0Z"/><path class="cls-2" d="M755.91035,339.884a61.11343,61.11343,0,0,1-3.93052,4.75906Q659.47747,437.76308,567.39174,530.4701c-11.99868,12.00125-24.20958,12.4155-35.79908.62012C469.71977,468.59717,408.26114,406.31,346.59538,343.81571a49.56859,49.56859,0,0,1-3.30912-3.93179Z" transform="translate(-74.82302 -30.71167)"/><path class="cls-2" d="M753.63187,670.56317H343.07915c45.73147-46.76592,90.63444-92.49865,135.33277-138.23138,8.69211,8.27783,16.96743,15.93427,24.83353,24.005,24.41674,24.21084,67.04624,24.418,91.46293.20714,7.65644-7.86359,15.31288-15.72713,23.79786-24.21211C663.4117,578.27162,708.10752,624.00313,753.63187,670.56317Z" transform="translate(-74.82302 -30.71167)"/><path class="cls-2" d="M452.54522,504.8105c-44.90546,45.93861-89.8084,91.87726-135.95413,139.0587V366.99212C362.32255,413.345,407.22549,458.87065,452.54522,504.8105Z" transform="translate(-74.82302 -30.71167)"/><path class="cls-2" d="M779.91278,373.61415v270.0479c-45.52428-46.56-90.013-92.08559-134.50669-137.61Q713.38566,439.00456,779.91278,373.61415Z" transform="translate(-74.82302 -30.71167)"/></svg>