<svg id="Layer_1" data-name="Layer 1" xmlns="http://www.w3.org/2000/svg" viewBox="0 0 919.01271 919.01271"><defs><style>.cls-1{fill:#5e7cbe;}.cls-2{fill:#fff;}</style></defs><title>2fb</title><path class="cls-1" d="M459.5059,0h.00092A459.50589,459.50589,0,0,1,919.01271,459.50589v.00093A459.50589,459.50589,0,0,1,459.50682,919.01271h-.00093A459.50589,459.50589,0,0,1,0,459.50682v-.00092A459.5059,459.5059,0,0,1,459.5059,0Z"/><path class="cls-2" d="M592.09892,735.581q.16938-78.40221-.01547-156.80441a2.83258,2.83258,0,0,1,2.82445-2.84071h51.80489c1.6766,0,2.44884-.25714,2.57782-2.19013.90122-7.47314,1.933-14.81734,2.96315-22.1615.90122-7.21522,1.804-14.55862,2.70681-21.77462.89964-6.69933,1.80243-13.39945,2.70523-20.61465h-2.9632c-19.96932,0-39.80971,0-59.77888.12894a2.81634,2.81634,0,0,1-2.83948-2.793q-.00024-.02421,0-.04842c.12717-14.90036-.00024-29.80149.25694-44.70186a40.37923,40.37923,0,0,1,2.31828-11.72442c3.09375-8.50413,10.05014-12.36927,18.42694-13.78636a87.04841,87.04841,0,0,1,13.01176-.902c10.30814-.129,20.74365-.129,31.05175,0,2.06032,0,2.83417-.3869,2.83417-2.706V377.90328c0-2.06114-.77381-2.577-2.57625-2.706a439.96688,439.96688,0,0,0-53.72835-2.19012c-15.97649.51586-31.05175,4.25205-44.70838,12.88436-16.23443,10.17914-26.28461,25.12466-31.6966,43.29128a122.05143,122.05143,0,0,0-4.25128,32.72678c0,14.81943,0,29.76865.12916,44.58788a2.79948,2.79948,0,0,1-2.7721,2.82661q-.03091.0003-.06184-.00008c-17.26768-.129-34.537,0-51.67563-.1291a2.67176,2.67176,0,0,0-2.69816,2.64507q-.0003.02853,0,.05705.19359,30.73048.0001,61.4619c0,2.19092.77381,2.706,2.8357,2.577h51.79383a2.57642,2.57642,0,0,1,2.57755,2.57526l0,.00843q-.18484,78.58215-.01547,157.16439a6.98137,6.98137,0,0,0,6.99133,6.96257l55.00581-.10292A6.98144,6.98144,0,0,0,592.09892,735.581Z" transform="translate(-103.45794 -98.27473)"/></svg>