<svg id="Layer_1" data-name="Layer 1" xmlns="http://www.w3.org/2000/svg" viewBox="0 0 927.28017 927.28017"><defs><style>.cls-1{fill:#5e7cbe;}.cls-2{fill:#fff;}</style></defs><title>2insta</title><rect class="cls-1" width="927.28017" height="927.28017" rx="463.63962"/><path class="cls-2" d="M522.31978,714.29991c-26.5106-.00021-53.02133.05183-79.53179-.01121-53.26858-.12672-94.63864-41.61577-94.69249-95.00077q-.07993-79.22672-.00093-158.45345c.05013-53.71184,41.42875-95.07289,95.16023-95.12221q78.94257-.07245,157.88535-.00306c54.16061.03584,95.51952,41.25694,95.57624,95.29781q.08278,78.93211.00115,157.86436c-.05151,54.10873-41.32712,95.34509-95.45507,95.42224Q561.79117,714.34995,522.31978,714.29991Zm.21369-69.61775c57.36134-.14034,104.56591-47.41046,104.56765-104.71278.00172-57.33788-47.17274-104.55339-104.56462-104.65554-57.53942-.10237-105.059,47.48441-104.83129,104.97953.22738,57.41615,47.53861,104.529,104.82826,104.38883Zm89.16021-219.359a25.66444,25.66444,0,1,0,25.90352-25.6655,25.66441,25.66441,0,0,0-25.90352,25.6655Z" transform="translate(-58.76638 -76.35991)"/><path class="cls-2" d="M590.72155,539.74654a68.06788,68.06788,0,1,1-.00332-.65947Q590.72149,539.41677,590.72155,539.74654Z" transform="translate(-58.76638 -76.35991)"/></svg>