<svg id="Layer_1" data-name="Layer 1" xmlns="http://www.w3.org/2000/svg" viewBox="0 0 963.3617 963.3617"><defs><style>.cls-1{fill:#5e7cbe;}.cls-2{fill:#fff;}</style></defs><title>2twitter</title><path class="cls-1" d="M481.68038,0h.001A481.68036,481.68036,0,0,1,963.3617,481.68036v.001A481.68036,481.68036,0,0,1,481.68134,963.3617h-.001A481.68036,481.68036,0,0,1,0,481.68134v-.001A481.68038,481.68038,0,0,1,481.68038,0Z"/><path class="cls-2" d="M557.54008,692.28248a250.94491,250.94491,0,0,1-80.42375,17.61441c-46.83217,2.79339-90.78465-7.4633-132.23733-29.05808-4.40738-2.296-8.59733-5.01111-12.86673-7.56748-.36538-.21879-.56853-.70844-1.445-1.85355,46.64091,4.12383,88.28752-7.39825,125.2847-35.47575a84.42043,84.42043,0,0,1-22.416-4.22971c-26.8228-8.55331-44.99321-26.2376-55.58648-52.09114-1.43292-3.49713-.16477-4.42041,3.101-3.84548a84.59763,84.59763,0,0,0,25.42518-.01678c1.59145-.20048,3.20952-.08939,4.56857-1.14036.63323-.6185,1.27773-.7978,1.9459-.04973-.77588-.93964-1.99913-1.11773-2.96151-1.73985a82.67128,82.67128,0,0,1-39.06141-23.24323C355.2,533.34909,346.743,514.0587,346.36578,491.38c-.01528-.91932.1085-1.841.20507-3.34776a91.79,91.79,0,0,0,37.06948,10.40434c-16.432-13.43535-28.51816-28.46008-33.4767-48.22241-1.45571-4.40434-1.85858-9.02024-2.72109-13.54376-1.54131-16.98026.76422-33.26425,8.62078-48.59178,2.42854-4.7379,2.54889-4.87441,6.06343-.79568a252.29085,252.29085,0,0,0,64.70367,53.87321,234.02816,234.02816,0,0,0,96.14353,31.18657c3.35171.32237,6.707.61742,10.05064,1.01041,2.772.32582,3.68491-.60339,3.18082-3.49244A86.58909,86.58909,0,0,1,624.04429,367.517c22.77618,1.06459,42.67565,9.35495,58.87214,25.77431,2.5607,3.10379,5.14675.53858,7.72355.03457,16.77891-3.74366,32.44468-10.42432,48.72978-19.3256a86.59152,86.59152,0,0,1-32.32419,44.40126c-.59278.47712-1.84722.91685-1.402,1.6415.78077,1.27075,2.19158.8385,3.40906.38508a203.10467,203.10467,0,0,0,27.81592-6.92588,42.28061,42.28061,0,0,0,9.59425-3.4019c.85723-.43095,2.4939-2.33182,2.96994.531l-.00225.0051c-.8432,1.37393-2.01674,2.50462-2.8574,3.88044-8.23871,12.21425-18.5873,22.44864-29.86142,31.81321a27.48982,27.48982,0,0,1-5.26045,4.18035c-3.24354,1.52584-3.6254,3.928-3.5017,7.041a224.7846,224.7846,0,0,1-6.16017,61.13014c-9.22883,38.77981-25.83931,73.99179-51.45779,104.86338-23.33541,28.12041-51.154,50.22141-84.50493,65.26538-1.16679.5264-2.3725.96656-3.56006,1.447C560.83656,691.27184,559.003,691.34472,557.54008,692.28248Z" transform="translate(-58.31915 -58.31915)"/></svg>