<svg id="Layer_1" data-name="Layer 1" xmlns="http://www.w3.org/2000/svg" viewBox="0 0 946.85785 946.85785"><defs><style>.cls-1{fill:#fff;}.cls-2{fill:#5e7cbe;}</style></defs><title>3fb</title><path class="cls-1" d="M473.42847,0h.00094C734.89673,0,946.85785,211.96112,946.85785,473.42844v.001c0,261.46729-211.96112,473.42841-473.42844,473.42841h-.001C211.96112,946.85785,0,734.89673,0,473.42941v-.00094C0,211.96117,211.96117,0,473.42847,0Z"/><path class="cls-2" d="M681.08732,309.37946a61.11142,61.11142,0,0,1-3.93054,4.75906q-92.50233,93.12-184.58808,185.827c-11.99865,12.00122-24.20959,12.41552-35.79907.62011-61.87289-62.493-123.33151-124.78021-184.99728-187.2745a49.56481,49.56481,0,0,1-3.30912-3.9318Z"/><path class="cls-2" d="M678.80888,640.05862H268.25614c45.73148-46.76593,90.63443-92.49865,135.33277-138.23138,8.6921,8.27783,16.96743,15.93427,24.83352,24.005,24.41672,24.21082,67.04624,24.418,91.46292.20716,7.65644-7.86359,15.31287-15.72711,23.79785-24.2121C588.58866,547.76706,633.28452,593.49857,678.80888,640.05862Z"/><path class="cls-2" d="M377.72221,474.30594c-44.90546,45.9386-89.80841,91.87726-135.95414,139.05871V336.48758C287.49952,382.84045,332.40247,428.36609,377.72221,474.30594Z"/><path class="cls-2" d="M705.08976,342.90247V612.95038c-45.52429-46.56-90.013-92.08557-134.50665-137.61Q638.56266,408.2929,705.08976,342.90247Z"/></svg>