<svg id="Layer_1" data-name="Layer 1" xmlns="http://www.w3.org/2000/svg" viewBox="0 0 919.0127 919.0127"><defs><style>.cls-1{fill:#fff;}.cls-2{fill:#5e7cbe;}</style></defs><title>3astaefb, nu mail</title><path class="cls-1" d="M459.50589,0h.00092C713.28491,0,919.0127,205.72778,919.0127,459.50589h0v.00092c0,253.7781-205.72779,459.50589-459.50589,459.50589h-.00092C205.7278,919.0127,0,713.28491,0,459.50681H0v-.00092C0,205.7278,205.72778,0,459.50589,0Z" transform="translate(0.00001 0.00001)"/><path class="cls-2" d="M488.641,637.30627q.16937-78.40229-.01544-156.80439a2.83258,2.83258,0,0,1,2.82446-2.84069h51.80487c1.67658,0,2.44885-.25714,2.57782-2.19013.90125-7.47314,1.933-14.81732,2.96314-22.1615.90124-7.21521,1.804-14.55859,2.70678-21.77459.89966-6.69935,1.80243-13.39948,2.7052-20.61466h-2.96319c-19.9693,0-39.8097,0-59.77887.12894a2.81634,2.81634,0,0,1-2.83948-2.793c-.00018-.01611-.00018-.03229,0-.04843.1272-14.90036-.00024-29.80149.257-44.70185a40.38071,40.38071,0,0,1,2.3183-11.72442c3.09375-8.50412,10.05011-12.36927,18.42694-13.78635a87.05021,87.05021,0,0,1,13.01178-.902c10.30816-.129,20.74365-.129,31.05175,0,2.06031,0,2.83417-.3869,2.83417-2.706V279.62856c0-2.06112-.7738-2.577-2.57623-2.706a439.96857,439.96857,0,0,0-53.72833-2.19013c-15.97651.51587-31.05176,4.252-44.70838,12.88437-16.23443,10.17914-26.2846,25.12467-31.69659,43.29129a122.05022,122.05022,0,0,0-4.25128,32.72678c0,14.81943,0,29.76865.12915,44.58789a2.79947,2.79947,0,0,1-2.7721,2.8266q-.03086.00031-.06183-.00009c-17.26767-.129-34.537,0-51.67563-.12909a2.67175,2.67175,0,0,0-2.69815,2.64508q-.00027.02851,0,.057.19359,30.7305.0001,61.46191c0,2.19092.7738,2.706,2.83569,2.577h51.79385a2.57645,2.57645,0,0,1,2.57758,2.57525v.00843q-.18484,78.58218-.01544,157.16436a6.98138,6.98138,0,0,0,6.99133,6.96259l55.0058-.10291A6.9815,6.9815,0,0,0,488.641,637.30627Z" transform="translate(0.00001 0.00001)"/></svg>