<svg id="Layer_1" data-name="Layer 1" xmlns="http://www.w3.org/2000/svg" viewBox="0 0 927.28015 927.28015"><defs><style>.cls-1{fill:#fff;}.cls-2{fill:#5e7cbe;}</style></defs><title>3insta</title><path class="cls-1" d="M463.63962,0h.00093A463.63961,463.63961,0,0,1,927.28015,463.63961v.00094A463.63961,463.63961,0,0,1,463.64055,927.28015h-.00094A463.63961,463.63961,0,0,1,0,463.64055v-.00093A463.63962,463.63962,0,0,1,463.63962,0Z"/><path class="cls-2" d="M463.55338,637.94c-26.51059-.00019-53.02133.05182-79.5318-.01123-53.26858-.12671-94.63864-41.61579-94.6925-95.0008q-.08-79.22681-.00092-158.45343c.05014-53.71185,41.42874-95.07287,95.16022-95.12219q78.94258-.07247,157.88538-.00305c54.16058.03583,95.51953,41.25693,95.57623,95.29782q.08277,78.93215.00116,157.86435c-.05151,54.1087-41.32715,95.34509-95.45508,95.42224Q503.02485,637.99013,463.55338,637.94Zm.21369-69.61774C521.1284,568.182,568.333,520.91182,568.33469,463.60951c.00171-57.33789-47.17273-104.5534-104.56463-104.65555-57.53943-.10235-105.059,47.48441-104.8313,104.97953.22739,57.41613,47.5386,104.529,104.82825,104.38885Zm89.16021-219.359a25.663,25.663,0,1,0,.0011-.2413Q552.92729,348.84263,552.92728,348.96327Z"/><path class="cls-2" d="M531.95518,463.38661a68.06829,68.06829,0,1,1-.0033-.65948Q531.95509,463.0568,531.95518,463.38661Z"/></svg>