<svg id="Layer_1" data-name="Layer 1" xmlns="http://www.w3.org/2000/svg" viewBox="0 0 1004.21277 1004.21277"><defs><style>.cls-1{fill:#fff;}.cls-2{fill:#5e7cbe;}</style></defs><title>3telcontact</title><path class="cls-1" d="M502.1059,0h.001c277.30539,0,502.10587,224.80045,502.10587,502.10587h0v.001c0,277.30542-224.80042,502.1059-502.10584,502.1059h-.001C224.80048,1004.21277,0,779.41235,0,502.10693v-.001C0,224.80046,224.80046,0,502.1059,0Z" transform="translate(0 0)"/><path class="cls-2" d="M628.29107,326.69983c-.001-22.1601-12.6593-34.84134-34.81366-34.84675q-91.39251-.02238-182.78454-.00012c-22.1572.00528-34.77033,12.66788-34.77277,34.86179q-.00865,87.69744-.00192,175.39456,0,87.69726.00192,175.39435c.00241,22.15484,12.65549,34.85058,34.78623,34.856q91.39182.02215,182.78457-.00019c22.12445-.00561,34.7992-12.7185,34.80066-34.8706Q628.30026,502.09436,628.29107,326.69983Zm-148.53686-3.0207c7.38415-.07916,14.76971-.02056,22.15429-.02081,7.38508-.00012,14.77021-.04306,22.15479.0148,5.02545.03922,8.17248,2.5358,8.34619,6.43723.18579,4.16046-3.03729,7.08227-8.23932,7.10727q-22.15448.10665-44.30914-.00324c-4.99225-.02633-7.98621-2.69848-8.06464-6.77136C471.71939,326.44476,474.7976,323.73233,479.75421,323.67913ZM501.8161,692.428a20.85243,20.85243,0,1,1,.09851.00109Zm101.83441-64.6897c.00531,4.055-.57178,5.53583-5.21265,5.52215q-96.32391-.28271-192.64819-.00177c-4.61874.01337-5.24344-1.4375-5.23044-5.51495.14151-43.85059.08856-87.7019.08856-131.553.00049-43.85107.08133-87.70251-.12079-131.55261-.02117-4.54871,1.32831-5.31323,5.50431-5.30457q96.07768.20019,192.15588.00074c4.1673-.00867,5.50623.7449,5.49756,5.29782q-.24115,131.55281-.03424,263.10611Z" transform="translate(0 0)"/></svg>