<?xml version="1.0" standalone="no"?>
<!DOCTYPE svg PUBLIC "-//W3C//DTD SVG 20010904//EN"
 "http://www.w3.org/TR/2001/REC-SVG-20010904/DTD/svg10.dtd">
<svg version="1.0" xmlns="http://www.w3.org/2000/svg"
 width="964.000000pt" height="964.000000pt" viewBox="0 0 964.000000 964.000000"
 preserveAspectRatio="xMidYMid meet">

<g transform="translate(0.000000,964.000000) scale(0.100000,-0.100000)"
fill="#000000" stroke="none">
<path d="M5473 6530 c-278 -50 -531 -257 -636 -520 -54 -136 -62 -183 -61
-357 l1 -163 -46 0 c-67 0 -248 25 -366 50 -333 72 -713 256 -992 480 -43 35
-143 128 -222 208 -119 119 -146 142 -157 130 -23 -23 -72 -160 -88 -247 -55
-290 38 -570 264 -792 l87 -85 -65 8 c-87 10 -166 31 -237 63 -32 14 -62 22
-65 18 -4 -5 -3 -46 1 -93 16 -152 70 -284 173 -421 102 -135 238 -235 396
-290 81 -28 88 -34 59 -50 -17 -9 -69 -13 -171 -14 -106 0 -148 -3 -148 -12 0
-49 118 -237 202 -322 126 -128 328 -224 524 -249 l59 -7 -80 -58 c-106 -76
-333 -187 -470 -230 -175 -56 -291 -72 -512 -72 -225 0 -223 4 -33 -94 373
-192 736 -282 1142 -282 306 0 537 35 798 121 313 102 529 223 781 433 528
442 854 1119 878 1822 l6 189 56 43 c87 65 219 199 287 290 57 76 81 121 50
95 -27 -22 -352 -112 -405 -112 -25 0 -12 26 28 55 116 86 228 235 275 367
l13 38 -58 -29 c-107 -54 -256 -112 -364 -142 -59 -16 -109 -29 -112 -29 -2 0
-32 25 -67 56 -87 77 -196 139 -308 176 -84 27 -111 31 -230 34 -74 1 -159 -1
-187 -6z"/>
</g>
</svg>
