<svg id="Layer_1" data-name="Layer 1" xmlns="http://www.w3.org/2000/svg" viewBox="0 0 963.36169 963.36169"><defs><style>.cls-1{fill:#fff;}.cls-2{fill:#5e7cbe;}</style></defs><title>3twitter</title><path class="cls-1" d="M481.68039,0h.001C747.70612,0,963.36169,215.65565,963.36169,481.68036v.001c0,266.02468-215.65564,481.68032-481.68035,481.68032h-.001C215.65562,963.36169,0,747.70605,0,481.68134v-.001C0,215.65561,215.65567,0,481.68039,0Z"/><path class="cls-2" d="M499.221,633.96332a250.9459,250.9459,0,0,1-80.42377,17.61438c-46.83215,2.7934-90.78466-7.46332-132.23733-29.0581-4.40738-2.296-8.59732-5.01111-12.86673-7.56751-.36539-.21881-.56854-.70843-1.445-1.85358,46.6409,4.12384,88.28754-7.39825,125.2847-35.47576a84.419,84.419,0,0,1-22.416-4.22974c-26.82282-8.55328-44.99323-26.23761-55.58649-52.09113-1.43292-3.49713-.16477-4.42041,3.101-3.84546a84.59789,84.59789,0,0,0,25.42517-.01678c1.59146-.2005,3.20954-.08942,4.56858-1.14038.63324-.61853,1.27774-.79779,1.94589-.04974-.77588-.93964-1.99912-1.11774-2.96152-1.73987a82.67118,82.67118,0,0,1-39.0614-23.24323c-15.66721-16.23651-24.12421-35.52685-24.50144-58.20556-.01528-.91932.10849-1.841.20508-3.34775a91.79054,91.79054,0,0,0,37.06949,10.40433c-16.432-13.43537-28.51816-28.46009-33.47671-48.22242-1.45572-4.40432-1.85859-9.02023-2.7211-13.54376-1.54132-16.98025.76422-33.26425,8.62078-48.5918,2.42853-4.73791,2.54889-4.87442,6.06342-.79568a252.29085,252.29085,0,0,0,64.70367,53.8732,234.02828,234.02828,0,0,0,96.14353,31.18658c3.35168.32236,6.707.61744,10.05066,1.01041,2.772.32581,3.68493-.60339,3.18085-3.49243a86.589,86.589,0,0,1,87.83886-102.34369c22.77619,1.06457,42.67566,9.35495,58.87213,25.77432,2.56073,3.10379,5.14673.53858,7.72358.03458,16.77893-3.74365,32.4447-10.42432,48.72979-19.32559a86.59145,86.59145,0,0,1-32.32415,44.40124c-.59278.47711-1.84723.91684-1.402,1.64151.78076,1.27075,2.19159.8385,3.40906.38507a203.10232,203.10232,0,0,0,27.81591-6.92587,42.28048,42.28048,0,0,0,9.59424-3.40189c.85724-.43094,2.4939-2.33181,2.96991.531l-.00226.0051c-.8432,1.37393-2.01672,2.5046-2.85742,3.88043-8.23871,12.21426-18.58728,22.44864-29.86145,31.8132a27.48873,27.48873,0,0,1-5.26044,4.18036c-3.24353,1.52585-3.62542,3.928-3.50171,7.041a224.78644,224.78644,0,0,1-6.16015,61.13013c-9.22882,38.77979-25.8393,73.99176-51.45777,104.8634-23.33538,28.12043-51.154,50.22144-84.50494,65.26538-1.16681.52643-2.3725.96656-3.56006,1.447C502.5174,632.9527,500.68384,633.02558,499.221,633.96332Z"/></svg>