<svg xmlns="http://www.w3.org/2000/svg" xmlns:xlink="http://www.w3.org/1999/xlink" viewBox="0 0 522.2766 522.2766"><defs><style>.cls-1{fill:none;}.cls-2{isolation:isolate;}.cls-3{fill:#b0cc36;}.cls-4{fill:#010101;}.cls-5{fill:#fff;}.cls-6{fill:#e4e876;}.cls-7{fill:#afcb36;}.cls-8{fill:#dae5e6;}.cls-9{mix-blend-mode:multiply;}.cls-10{clip-path:url(#clip-path);}</style><clipPath id="clip-path" transform="translate(-0.3617 -0.3617)"><rect class="cls-1" x="201.60105" y="305.3934" width="119.80069" height="10.44492"/></clipPath></defs><title>goal</title><g class="cls-2"><g id="Layer_1" data-name="Layer 1"><rect class="cls-3" width="522.2766" height="522.2766"/><path class="cls-4" d="M413.39989,453.7901a1.06964,1.06964,0,0,0-1.05721-.77212H409.4156a1.07018,1.07018,0,0,0-1.05721.77212l-4.75708,12.9695-4.87867-12.9695a1.0702,1.0702,0,0,0-1.05721-.77212h-2.88657a1.0702,1.0702,0,0,0-1.05721.77212l-4.79759,12.9695-4.79764-12.9695a1.06961,1.06961,0,0,0-1.05721-.77212h-2.88652a1.07019,1.07019,0,0,0-1.05721.77212l-4.83816,12.9695-4.79691-12.9695a1.07151,1.07151,0,0,0-1.05789-.77212h-2.92708a1.07019,1.07019,0,0,0-1.05721.77212l-6.78906,17.76712a.66084.66084,0,0,0,.64983.97546h2.60215a1.04877,1.04877,0,0,0,1.05721-.7316l5.001-13.41669,5.00094,13.41669a1.03319,1.03319,0,0,0,1.05649.7316h2.39884a1.03351,1.03351,0,0,0,1.05721-.7316l5.12321-13.41669,4.95975,13.41669a1.083,1.083,0,0,0,1.05721.7316h2.52107a1.08212,1.08212,0,0,0,1.05652-.7316l5.00167-13.41669,5.082,13.41669a1.03273,1.03273,0,0,0,1.05653.7316h2.3988a1.03348,1.03348,0,0,0,1.05721-.7316l5.0415-13.33564,4.96042,13.33564a1.049,1.049,0,0,0,1.05649.7316h2.6839a.66117.66117,0,0,0,.65056-.97546Z" transform="translate(-0.3617 -0.3617)"/><path class="cls-4" d="M335.05906,468.22334c-.48777-.65053-.9755-.44719-1.42267-.20332a7.25439,7.25439,0,0,1-3.69991,1.17879c-3.537,0-5.89532-2.80479-5.89532-6.42362s2.35828-6.46413,5.89532-6.46413a7.17526,7.17526,0,0,1,3.78095,1.17879.93511.93511,0,0,0,1.42334-.16281l1.13829-1.58546a.87134.87134,0,0,0-.20335-1.3416,10.3427,10.3427,0,0,0-6.2615-1.95161c-6.05815,0-10.083,4.472-10.083,10.32682s4.02481,10.28631,10.083,10.28631a10.3427,10.3427,0,0,0,6.2615-1.95161.85465.85465,0,0,0,.20335-1.3416Z" transform="translate(-0.3617 -0.3617)"/><path class="cls-4" d="M307.65589,453.01743h-2.39884a.94565.94565,0,0,0-.93489.93492v1.6267a7.6095,7.6095,0,0,0-6.38309-3.13111,9.90352,9.90352,0,0,0-9.8391,10.287c0,6.17974,4.55373,10.32613,9.79854,10.32613a7.68738,7.68738,0,0,0,6.42365-3.1297v1.707a.93793.93793,0,0,0,.93489.8944h2.39884a.902.902,0,0,0,.89438-.8944V453.95235a.91178.91178,0,0,0-.89438-.93492m-9.26961,16.14112a6.0592,6.0592,0,0,1-5.97644-6.38308c0-3.5776,2.47987-6.34255,5.97644-6.34255a6.37531,6.37531,0,0,1,0,12.72563" transform="translate(-0.3617 -0.3617)"/><path class="cls-4" d="M249.02807,443.21851a14.92168,14.92168,0,0,0,0,29.84291,15.30546,15.30546,0,0,0,4.04786-.54292l1.60364,4.16175a1.04856,1.04856,0,0,0,1.09773.73229h2.56163c.61,0,1.05721-.40737.77212-1.17949l-2.08857-5.44605a14.98651,14.98651,0,0,0-7.99441-27.56849m6.46,23.56744-1.86568-4.864a1.17706,1.17706,0,0,0-1.21931-.77281h-2.43934a.80127.80127,0,0,0-.81334,1.17948l2.46447,6.39706a10.75492,10.75492,0,0,1-2.58677.31095c-6.01693,0-10.28628-4.71657-10.28628-10.89631s4.26935-10.89631,10.28628-10.89631,10.28631,4.71656,10.28631,10.89631A11.016,11.016,0,0,1,255.488,466.786" transform="translate(-0.3617 -0.3617)"/><path class="cls-4" d="M284.4,453.0177H282.0012a.92986.92986,0,0,0-.8937.89441V464.0356c0,3.1311-1.95231,5.3671-5.24553,5.3671-3.37425,0-5.082-2.15495-5.082-5.40763v-10.083a.90252.90252,0,0,0-.8944-.89441h-2.39882a.93845.93845,0,0,0-.93492.89441v10.774c0,5.00095,3.13039,8.37591,8.21241,8.37591a7.242,7.242,0,0,0,6.34325-3.00951v1.62668a.89378.89378,0,0,0,.8937.85388H284.4a.93807.93807,0,0,0,.93489-.8951V453.95264a.94522.94522,0,0,0-.93489-.93494" transform="translate(-0.3617 -0.3617)"/><path class="cls-4" d="M316.07241,443.74766h-2.39884a.97419.97419,0,0,0-.93494.93494v26.91515a.97429.97429,0,0,0,.93494.93562h2.39884a.91116.91116,0,0,0,.89438-.93562V444.6826a.911.911,0,0,0-.89438-.93494" transform="translate(-0.3617 -0.3617)"/><path class="cls-4" d="M347.58163,452.48911a10.28638,10.28638,0,1,0,10.24575,10.2863,10.16159,10.16159,0,0,0-10.24575-10.2863m0,16.62885a6.02427,6.02427,0,0,1-5.97644-6.34255c0-3.5776,2.47987-6.34256,5.97644-6.34256s5.97639,2.765,5.97639,6.34256a6.02426,6.02426,0,0,1-5.97639,6.34255" transform="translate(-0.3617 -0.3617)"/><path class="cls-4" d="M102.73867,463.47575v-10.505h3.87527a3.34779,3.34779,0,0,1,0,6.694H104.8496v3.811Zm4.99328-7.15031a1.35123,1.35123,0,0,0-1.37027-1.496H104.8496v2.99275h1.51208a1.35978,1.35978,0,0,0,1.37027-1.49674" transform="translate(-0.3617 -0.3617)"/><path class="cls-4" d="M116.68,463.47575l-1.62179-3.7956h-1.15014v3.7956h-2.11024v-10.505h3.92209a3.12547,3.12547,0,0,1,3.22822,3.32325,2.90658,2.90658,0,0,1-1.85867,3.00813l1.93764,4.17362Zm.11042-7.15031a1.35123,1.35123,0,0,0-1.37027-1.496h-1.51208v2.99275h1.51208a1.35147,1.35147,0,0,0,1.37027-1.49674" transform="translate(-0.3617 -0.3617)"/><polygon class="cls-4" points="120.778 463.114 120.778 452.609 126.81 452.609 126.81 454.467 122.889 454.467 122.889 456.846 126.7 456.846 126.7 458.688 122.889 458.688 122.889 461.256 126.81 461.256 126.81 463.114 120.778 463.114"/><path class="cls-4" d="M128.70193,462.29487l1.02367-1.63787a3.43247,3.43247,0,0,0,2.55182,1.13407c.96078,0,1.44851-.51987,1.44851-1.16551,0-1.85868-4.70887-1.197-4.70887-4.75709a3.15625,3.15625,0,0,1,3.46509-3.071,4.63072,4.63072,0,0,1,3.1975,1.16551l-.99224,1.60643a3.20646,3.20646,0,0,0-2.25277-.89789,1.10989,1.10989,0,0,0-1.25985,1.07118c0,1.65394,4.69351,1.18089,4.69351,4.70958,0,1.82723-1.24448,3.21285-3.57551,3.21285a4.80192,4.80192,0,0,1-3.59086-1.37025" transform="translate(-0.3617 -0.3617)"/><polygon class="cls-4" points="137.509 463.114 137.509 452.609 143.541 452.609 143.541 454.467 139.619 454.467 139.619 456.846 143.431 456.846 143.431 458.688 139.619 458.688 139.619 461.256 143.541 461.256 143.541 463.114 137.509 463.114"/><polygon class="cls-4" points="151.45 463.114 147.843 456.704 147.843 463.114 145.733 463.114 145.733 452.609 147.874 452.609 151.356 458.783 151.356 452.609 153.466 452.609 153.466 463.114 151.45 463.114"/><polygon class="cls-4" points="157.721 463.114 157.721 454.467 155.374 454.467 155.374 452.609 162.179 452.609 162.179 454.467 159.831 454.467 159.831 463.114 157.721 463.114"/><polygon class="cls-4" points="164.086 463.114 164.086 452.609 170.118 452.609 170.118 454.467 166.197 454.467 166.197 456.846 170.008 456.846 170.008 458.688 166.197 458.688 166.197 461.256 170.118 461.256 170.118 463.114 164.086 463.114"/><path class="cls-4" d="M172.67152,463.47618V452.97047h3.38615c2.94523,0,4.61525,2.20526,4.61525,5.26088,0,3.07172-1.67,5.24483-4.59917,5.24483Zm5.8276-5.24483c0-2.09484-.835-3.4022-2.42537-3.4022h-1.292v6.78835h1.27591c1.575,0,2.44145-1.37024,2.44145-3.38615" transform="translate(-0.3617 -0.3617)"/><path class="cls-4" d="M186.66085,463.47583v-10.505h4.363a2.558,2.558,0,0,1,2.788,2.67761,2.32061,2.32061,0,0,1-1.70077,2.41,2.48811,2.48811,0,0,1,1.87405,2.5672,2.6125,2.6125,0,0,1-2.81946,2.8502Zm4.99327-7.46544a1.06389,1.06389,0,0,0-1.13406-1.18089h-1.74829v2.37785h1.74829a1.06176,1.06176,0,0,0,1.13406-1.197m.1733,4.33154a1.18253,1.18253,0,0,0-1.22842-1.292h-1.82723v2.56791H190.599a1.13372,1.13372,0,0,0,1.22842-1.27593" transform="translate(-0.3617 -0.3617)"/><polygon class="cls-4" points="197.626 463.114 197.626 458.783 194.351 452.609 196.681 452.609 198.681 456.83 200.666 452.609 202.997 452.609 199.737 458.783 199.737 463.114 197.626 463.114"/><path class="cls-5" d="M425.88979,117.21433h-31.2747V80.952a35.41073,35.41073,0,0,0-35.36791-35.36723H163.753a35.399,35.399,0,0,0-35.36094,35.361v36.2686H97.1104a27.8352,27.8352,0,0,0-27.797,27.804V304.879a31.847,31.847,0,0,0,9.28849,22.098,20.77015,20.77015,0,0,0,1.89292,1.68958c7.06785,5.60887,16.11947,6.45367,24.75181,7.55q6.36.807,12.71866,1.6134c.747.12577,1.5086.21661,2.26254.2795l22.99937,2.80758a133.10431,133.10431,0,0,0,236.4556.11878c1.4178-.17469,2.84251-.35635,4.26031-.538q19.15029-2.4306,38.30757-4.85351c7.43889-.94332,14.24821-2.34711,20.21275-7.27049A30.84827,30.84827,0,0,0,453.68673,304.879V145.01831a27.83517,27.83517,0,0,0-27.79694-27.804" transform="translate(-0.3617 -0.3617)"/><path class="cls-4" d="M443.106,288.36136v-143.343a17.2393,17.2393,0,0,0-17.21653-17.22348H389.32107a5.28789,5.28789,0,0,1-5.28745-5.28677V80.95208a24.81428,24.81428,0,0,0-24.78674-24.78677H163.75337a24.81147,24.81147,0,0,0-24.77978,24.78046v41.56237a5.28786,5.28786,0,0,1-5.28743,5.28677H97.11008a17.23911,17.23911,0,0,0-17.2158,17.22348V304.87912A20.83928,20.83928,0,0,0,86.25709,319.511a11.63152,11.63152,0,0,0,1.3409,1.2284,13.1147,13.1147,0,0,0,1.74549,1.06909A24.5538,24.5538,0,0,0,98.01777,324.63c1.93482.24456,3.86268.49612,5.79752.74q6.98679.88041,13.975,1.77412c.538.06289,1.07537.13277,1.6134.20263.07688.007.14674.021.22361.035.51636.08384,1.04043.15372,1.55752.19565a1.13788,1.13788,0,0,1,.21661.021l25.925,3.15695A5.28731,5.28731,0,0,1,151.44,333.6886a122.53128,122.53128,0,0,0,220.04338.12577A5.28248,5.28248,0,0,1,375.562,330.895q15.55727-1.96943,31.12163-3.94584c10.41344-1.32063,24.75181-.71272,31.95941-9.51277,6.265-7.64083,4.46294-19.688,4.46294-29.075" transform="translate(-0.3617 -0.3617)"/><path class="cls-6" d="M333.72762,116.403l26.06827-33.1606,1.86847-2.37641a9.51957,9.51957,0,0,0-5.00794-1.44923H346.832L307.75019,98.86928l-3.66145-2.26535L276.30225,79.41679H266.248l32.26964,19.96048,3.66149,2.26467-34.215,17.03062-2.20876,1.09914-1.60362.798V79.41679h-5.28884v41.1529l-1.46179-.72741-2.35058-1.16972-34.2723-17.05928,3.78862-2.34289,32.09638-19.8536h-10.055L218.99568,96.49706l-3.78862,2.34361L176.18325,79.41679h-9.82513a9.557,9.557,0,0,0-4.66624,1.24166l27.76274,35.31413-2.12909,3.38406-9.916,15.7603h6.24892l7.13773-11.34488L192.926,120.388l11.57829,14.72893h6.72756l-14.59758-18.56856,3.22264-1.99356,11.84032-7.32357,3.78862-2.34433,39.56464,19.69359.522.25994-.522.25921-20.12472,10.01728h11.87037l8.25435-4.10865,2.20873-1.09913,1.60364-.79868v6.00646h5.28884v-6.00646l1.74617.86926,2.06621,1.02787,8.25432,4.10933h11.86967l-20.124-10.01728-.522-.25921.522-.25994,39.50731-19.66425,3.91512,2.42187,12.07719,7.47037,3.22264,1.99351-14.39846,18.31493h6.72756l11.24078-14.29848,2.12913,3.384,6.86727,10.91447h6.249l-9.64487-15.32985ZM206.1261,104.45792l-9.55892,5.91281-3.22193,1.99282L169.45639,81.97633l40.45833,20.138Zm123.85,8.15926-3.22268-1.99351-9.795-6.05887-3.91511-2.42187,41.345-20.57889Z" transform="translate(-0.3617 -0.3617)"/><polygon class="cls-6" points="156.539 119.802 168.294 134.755 175.022 134.755 156.539 111.244 156.539 119.802"/><polygon class="cls-6" points="347.775 134.755 354.502 134.755 365.752 120.445 365.752 111.887 347.775 134.755"/><path class="cls-6" d="M357.43168,74.14059l-.0133.007c.12227.00558.24245.01817.36336.02725-.116-.014-.23269-.02444-.35006-.03425" transform="translate(-0.3617 -0.3617)"/><path class="cls-6" d="M257.19572,305.40534c-16.02095.079-31.97063.60793-47.81408,1.75107q-3.89484.28091-7.78059.6184a66.06982,66.06982,0,0,0,119.8-.00908c-19.81027-1.691-39.79871-2.37227-59.89407-2.37227q-2.156,0-4.31127.01188" transform="translate(-0.3617 -0.3617)"/><path class="cls-5" d="M156.90081,88.874V83.55862a9.39515,9.39515,0,0,1,.33889-2.47147q.11528-.42343.26761-.82942a9.43911,9.43911,0,0,1,1.654-2.81944c.11809-.13835.24107-.2718.36684-.4032a9.46363,9.46363,0,0,1,4.06323-2.519,21.51047,21.51047,0,0,1,2.76705-.415h190.2983c.26135,0,1.0097.06009,1.125.07335a9.49377,9.49377,0,0,1,5.70532,2.86068q.32907.34488.62185.72182a9.42235,9.42235,0,0,1,2.00473,5.80171v51.558h5.28886v-51.558a14.65781,14.65781,0,0,0-1.088-5.55085q-.26938-.66135-.60023-1.28921a14.78786,14.78786,0,0,0-10.29748-7.64292l-.0154-.0035a14.80406,14.80406,0,0,0-2.74467-.25994H166.35838c-.78889,0-2.46309.20966-2.53645.22292a14.74638,14.74638,0,0,0-12.21,14.5235v51.558h5.28884Z" transform="translate(-0.3617 -0.3617)"/><path class="cls-5" d="M313.32142,370.71905a104.91951,104.91951,0,0,1-84.26788,8.58905,2.64433,2.64433,0,1,0-1.63925,5.02819,110.19912,110.19912,0,0,0,88.5309-9.025,2.64445,2.64445,0,1,0-2.62377-4.5922" transform="translate(-0.3617 -0.3617)"/><path class="cls-5" d="M189.26014,327.76436a2.64471,2.64471,0,0,0-.62469,3.68731A90.27674,90.27674,0,0,0,199.07757,343.67a2.64454,2.64454,0,0,0,3.69778-3.78163,84.94339,84.94339,0,0,1-9.82792-11.49933,2.64429,2.64429,0,0,0-3.68729-.62469" transform="translate(-0.3617 -0.3617)"/><path class="cls-5" d="M320.89431,339.22477a83.89044,83.89044,0,0,1-106.834,9.93905,2.64443,2.64443,0,1,0-2.99344,4.36019A89.181,89.181,0,0,0,324.6347,342.9652a2.64487,2.64487,0,1,0-3.74039-3.74043" transform="translate(-0.3617 -0.3617)"/><path class="cls-5" d="M206.99982,230.20982H196.79527q-9.96663,0-9.96628,8.70154V273.315q0,8.7015,9.96628,8.70083l10.20455-.4493q9.96765,0,9.96625-8.70154V253.65011l-15.24812.355v7.03851l3.93746-.06287v10.85577a2.03453,2.03453,0,0,1-.47514,1.54353,2.46125,2.46125,0,0,1-1.66094.43393l-3.24289.1663a2.46249,2.46249,0,0,1-1.66094-.43392,2.03457,2.03457,0,0,1-.47444-1.54355V239.93854q0-1.97469,2.13538-1.97747h3.24289q2.13607,0,2.13608,1.97747V246.504h11.31066v-7.59264q0-8.70257-9.96625-8.70154" transform="translate(-0.3617 -0.3617)"/><path class="cls-5" d="M247.578,230.21008H236.97939q-10.04733,0-10.04664,8.70081v32.82727q0,8.78016,10.04664,8.77979H247.578q9.96765,0,9.96766-8.77979V238.91089q0-8.70153-9.96766-8.70081m-9.3332,10.28276q0-1.97675,2.13538-1.97743h3.797q2.05642,0,2.05642,1.97743v29.74162q0,1.97988-2.05642,1.97816h-3.797q-2.134,0-2.13538-1.97816Z" transform="translate(-0.3617 -0.3617)"/><path class="cls-5" d="M276.52863,230.20986l-11.391,50.30792,11.12761.13415,1.76713-9.23048h11.46927l1.82445,9.53934,11.49236.35846-11.89415-51.10939Zm7.19784,11.70616,4.11283,21.27836h-8.22568Z" transform="translate(-0.3617 -0.3617)"/><polygon class="cls-5" points="321.332 229.848 310.1 229.848 310.1 281.222 335.808 282.603 335.808 273.925 321.332 272.916 321.332 229.848"/><path class="cls-5" d="M137.73466,165.092v61.58575q0,1.97886-2.13679,1.97748l-3.82566.21938q-2.05851,0-2.05783-1.97743l.03-61.80518H118.43377v63.47656q0,8.78016,9.96628,8.7798l10.6-.38712q10.04315,0,10.04524-8.77979V165.092Z" transform="translate(-0.3617 -0.3617)"/><polygon class="cls-5" points="170.911 185.821 170.911 164.73 159.679 164.73 159.679 185.821 159.679 216.799 185.387 216.172 185.387 207.866 170.911 208.058 170.911 185.821"/><polygon class="cls-5" points="189.816 173.036 198.992 173.036 198.992 185.822 198.992 215.713 210.304 215.713 210.304 185.822 210.304 173.036 219.558 173.036 219.558 164.731 189.816 164.731 189.816 173.036"/><polygon class="cls-5" points="238.938 164.73 227.708 164.73 227.706 164.73 227.706 215.458 238.938 215.307 238.938 164.73"/><polygon class="cls-5" points="279.196 164.729 270.892 193.203 262.588 164.729 250.247 164.729 250.247 215.189 260.213 215.189 260.213 181.345 266.702 204.12 275.047 204.252 281.57 181.261 281.57 215.294 291.537 215.399 291.537 164.729 279.196 164.729"/><path class="cls-5" d="M312.45319,165.092,300.9804,215.76258l11.11015.29069,1.86565-9.74967,11.52306.2788,1.86011,9.728,11.48954.25921L326.84883,165.092Zm7.19784,11.70615,4.11283,21.27836h-8.22571Z" transform="translate(-0.3617 -0.3617)"/><polygon class="cls-5" points="339.106 173.036 348.281 173.036 348.281 216.496 359.593 216.808 359.593 173.036 368.847 173.036 368.847 164.731 339.106 164.731 339.106 173.036"/><polygon class="cls-5" points="388.068 204.188 401.339 204.459 401.339 196.153 388.068 195.882 388.068 173.036 403.572 173.036 403.572 164.731 376.756 164.731 376.756 235.889 404.204 236.987 404.204 228.504 388.068 227.583 388.068 204.188"/><path class="cls-5" d="M423.28457,140.44346H99.70811a7.19255,7.19255,0,0,0-7.17965,7.18663V304.89288a7.1846,7.1846,0,0,0,7.18665,7.17967,6.70346,6.70346,0,0,0,1.118-.09084q26.484-4.14849,53.708-6.90016a109.07825,109.07825,0,0,0,14.14272,33.60778,110.28336,110.28336,0,0,0,42.67336,38.95043,2.56428,2.56428,0,0,0,1.20114.29346,2.6437,2.6437,0,0,0,1.21514-4.99394,105.07585,105.07585,0,0,1-40.62673-37.08547,103.82028,103.82028,0,0,1-13.30491-31.30331c5.12673-.49611,10.27372-.93633,15.42841-1.35488a88.612,88.612,0,0,0,5.62913,15.13423,2.64589,2.64589,0,0,0,4.77037-2.29049,83.84693,83.84693,0,0,1-5.0289-13.27c26.64473-2.018,53.65982-3.03818,80.85587-3.03818s54.20414,1.02019,80.84185,3.03119a83.71758,83.71758,0,0,1-9.24722,21.04356,2.64187,2.64187,0,1,0,4.49782,2.77263,88.52135,88.52135,0,0,0,10.106-23.383c5.16168.41855,10.31565.85877,15.44867,1.35488a104.55467,104.55467,0,0,1-33.69093,54.812,2.64512,2.64512,0,0,0,3.43574,4.02272,109.88312,109.88312,0,0,0,35.56359-58.30371q27.18625,2.75447,53.70805,6.90016a7.1818,7.1818,0,0,0,8.31092-7.08883V147.63009a7.194,7.194,0,0,0-7.18667-7.18663m1.89994,164.44942a1.8989,1.8989,0,0,1-2.19967,1.86428,1044.99212,1044.99212,0,0,0-161.48812-12.31268,1044.96826,1044.96826,0,0,0-161.48116,12.31268,1.87287,1.87287,0,0,1-1.53655-.43254,1.84545,1.84545,0,0,1-.66312-1.43174V147.63009a1.89425,1.89425,0,0,1,1.89222-1.8929H423.28457a1.89591,1.89591,0,0,1,1.89994,1.8929Z" transform="translate(-0.3617 -0.3617)"/><path class="cls-7" d="M299.56917,325.6763a.92467.92467,0,0,0-1.1907-.4989c-.06009.02375-.12086.04751-.18095.072-.18169.06917-.36337.139-.54573.20473-.0189.0077-.04265.01608-.06359.02237-.15861.06148-.32144.11809-.48423.17119q-.47481.17084-.96151.32c-.13971.044-.28156.08664-.4255.12648-.14185.0468-.28583.08734-.43254.12577a.50375.50375,0,0,1-.08666.02375c-.204.05871-.40665.1146-.61209.16422-.0629.01606-.12718.03493-.19426.04681-.17537.04682-.348.08734-.52756.12577-.05378.01537-.11042.02866-.16838.04053-.17959.04331-.36336.08244-.54781.11669-.05664.01328-.11673.02725-.18241.037-.17328.03563-.35074.072-.52756.10131-.07336.01467-.14953.02725-.22779.03843-.19912.03844-.40387.072-.61068.09992-.24177.03983-.48354.07408-.72532.10481a.19075.19075,0,0,1-.037.0049c-.22433.02935-.44721.05589-.67222.07686-.02375.0042-.05028.00558-.081.00838-.23128.02725-.46538.04821-.70434.0657-.2425.02164-.48772.037-.7309.0496a.13172.13172,0,0,1-.02657.00279c-.22361.01328-.45.02516-.66937.02936a.88832.88832,0,0,1-.11251.0028c-.23477.01187-.46537.01537-.69248.014-.23755.00559-.47305.00489-.70924,0-.02026-.0007-.04192.00071-.06636.00071q-.35741-.0042-.71551-.02167c-.24945-.00838-.4989-.02166-.74558-.03913-.24527-.01328-.49122-.03075-.733-.05309-.007-.00141-.01327.00068-.02026-.00071-.24595-.02166-.49054-.04612-.73509-.07476-.2222-.02237-.4374-.051-.654-.07967-.044-.00488-.09084-.01258-.13556-.01746-.23128-.03-.46327-.06429-.69107-.10272q-.37206-.05974-.73927-.12788c-.19914-.03493-.40038-.07547-.59814-.11739-.30884-.06289-.61629-.13277-.92374-.20333-.19286-.04542-.38431-.09434-.57787-.14464-.04682-.01188-.09642-.02516-.146-.03913-.14394-.03634-.28788-.07338-.42764-.1146-.13276-.03633-.26412-.074-.39479-.1118q-.32806-.09539-.65263-.20053c-.174-.0545-.35076-.11042-.52266-.17189-.0545-.01747-.11321-.03425-.16771-.0566-.19074-.06429-.38081-.13276-.56948-.20335-.04542-.014-.08873-.03-.13136-.0468-.15232-.05591-.30466-.1118-.457-.1726-.31165-.12229-.62119-.24736-.93144-.38083q-.195-.07965-.38362-.167c-.146-.06288-.29-.12858-.43672-.19635-.19844-.09155-.39618-.18586-.59532-.28161-.15373-.07406-.30746-.15161-.45909-.232-.17469-.08735-.35147-.17678-.52407-.2711-.14952-.07828-.29487-.15654-.44019-.23968-.31095-.17119-.62049-.34867-.92656-.53524-.13344-.07755-.26832-.15931-.40038-.24316-.22011-.13417-.43672-.27322-.65053-.41437-.20194-.13135-.40039-.26762-.59883-.40388-.17469-.12018-.34728-.24245-.51986-.36543q-1.0251-.73683-2.004-1.56939a30.90308,30.90308,0,0,1-9.56728-14.56895c-16.02095.079-31.97063.60791-47.81408,1.75106a62.14633,62.14633,0,0,0,89.88509,19.63629.90547.90547,0,0,0,.30954-1.10125l-.007-.01537" transform="translate(-0.3617 -0.3617)"/><polygon class="cls-7" points="303.727 96.243 298.156 99.016 301.817 101.281 307.388 98.507 303.727 96.243"/><polygon class="cls-7" points="307.11 104.554 311.025 106.976 316.597 104.203 312.682 101.781 307.11 104.554"/><polygon class="cls-7" points="333.366 116.042 329.894 120.457 332.023 123.841 335.495 119.426 333.366 116.042"/><polygon class="cls-7" points="323.102 114.447 326.325 116.44 329.614 112.255 326.392 110.262 323.102 114.447"/><polygon class="cls-7" points="192.983 112.002 196.273 116.187 199.495 114.193 196.206 110.008 192.983 112.002"/><polygon class="cls-7" points="186.964 118.995 190.435 123.41 192.564 120.026 189.093 115.611 186.964 118.995"/><polygon class="cls-7" points="215.124 104.526 209.553 101.752 205.764 104.096 211.336 106.869 215.124 104.526"/><polygon class="cls-7" points="224.205 98.909 218.634 96.135 214.845 98.479 220.416 101.252 224.205 98.909"/><polygon class="cls-7" points="267.602 130.646 267.602 128.59 267.602 124.738 267.08 124.478 267.602 124.219 267.602 120.509 267.602 118.31 265.394 119.41 263.79 120.208 263.79 122.841 263.79 126.116 263.79 128.749 265.536 129.618 267.602 130.646"/><polygon class="cls-7" points="258.501 128.749 258.501 126.116 258.501 122.841 258.501 120.208 257.039 119.481 254.689 118.311 254.689 120.651 254.689 124.219 255.211 124.479 254.689 124.738 254.689 128.448 254.689 130.647 256.898 129.547 258.501 128.749"/><path class="cls-8" d="M341.73574,282.95185a1.46456,1.46456,0,0,1-.73859-.20821l-.10414.34588a1.65383,1.65383,0,0,0,.81407.20332c.75393,0,1.11871-.42622,1.11871-.91885,0-.46886-.27462-.72948-.81548-.93771-.44022-.17119-.63444-.31795-.63444-.61631,0-.21732.1656-.47865.6016-.47865a1.274,1.274,0,0,1,.60654.15164l.11387-.33611a1.455,1.455,0,0,0-.70574-.15652.91905.91905,0,0,0-1.03273.86717c0,.45.32144.72039.84337.90487.43045.1656.601.33611.601.63446,0,.32282-.246.545-.668.545" transform="translate(-0.3617 -0.3617)"/><path class="cls-8" d="M343.847,280.46492h.009c.09016.37874.218.791.36968,1.241l.51634,1.52118h.313l.56321-1.54982c.16143-.44021.29419-.83851.4032-1.21234h.014c-.00487.39759.02375.93285.04751,1.37865l.08035,1.40168h.40319l-.19985-3.19259h-.52547l-.56807,1.54425c-.14253.40318-.25645.75326-.3368,1.07538h-.014c-.08034-.33121-.18935-.682-.32212-1.07538l-.545-1.54425h-.52615l-.2222,3.19259h.39339l.08525-1.36814c.02794-.47934.05242-1.0146.0615-1.41219" transform="translate(-0.3617 -0.3617)"/><path class="cls-8" d="M195.638,272.00251l-.01607-12.48455q-3.1622.18238-6.28946.38153v13.41529c0,5.42229,3.55384,6.19091,7.40885,6.19861l10.14865-.44791.1097-.00279c3.87666,0,7.46335-.75115,7.46335-6.19721V258.60192q-3.16639.12577-6.30413.269v12.96533a4.37313,4.37313,0,0,1-1.2829,3.384,4.68887,4.68887,0,0,1-3.28761,1.09705l-3.18421.16351-.12788.00279a4.73736,4.73736,0,0,1-3.34771-1.088,4.381,4.381,0,0,1-1.29058-3.39314" transform="translate(-0.3617 -0.3617)"/><path class="cls-8" d="M247.578,278.0149c6.578,0,7.46473-3.173,7.46473-6.27617v-14.0204q-3.16218.0126-6.30551.04333V270.235a4.23665,4.23665,0,0,1-4.56,4.48108h-3.797a4.27462,4.27462,0,0,1-4.6383-4.48108l.0042-12.277q-3.16638.066-6.30971.1488v13.63192c0,4.39935,2.25627,6.27617,7.5437,6.27617Z" transform="translate(-0.3617 -0.3617)"/><path class="cls-8" d="M131.86166,231.37775h-.08945a4.23754,4.23754,0,0,1-4.56143-4.48038l.07335-26.141q-3.20934.44027-6.34743.90142v26.91023c0,3.09478.87973,6.25941,7.40675,6.2769h.01188l10.64474-.38712c5.28605,0,7.54161-1.87682,7.54161-6.27685V198.37161q-3.181.35319-6.3041.726V226.678a4.27883,4.27883,0,0,1-4.57333,4.48106Z" transform="translate(-0.3617 -0.3617)"/><path class="cls-8" d="M168.76916,196.19663q-3.13392.26627-6.22519.55132v17.84819l20.70118-.50589v-3.32606l-14.476.19218Z" transform="translate(-0.3617 -0.3617)"/><path class="cls-8" d="M385.92695,201.99374l13.27062.27111v-.58833q-9.46876-1.39294-19.57618-2.59656v34.76563l22.44036.89719v-3.51191l-16.1348-.92168Z" transform="translate(-0.3617 -0.3617)"/><g class="cls-9"><g class="cls-10"><path class="cls-8" d="M261.50706,305.3934q-2.15706,0-4.3113.0119c-16.02165.07894-31.97131.6079-47.81408,1.751q-3.89484.282-7.78057.6184a65.60933,65.60933,0,0,0,4.47618,8.06358c18.35548-1.4024,36.85419-1.96489,55.42977-1.96489,18.59232,0,37.09382.5527,55.4486,1.94461a65.838,65.838,0,0,0,4.44544-8.05168c-19.81027-1.69169-39.79871-2.373-59.894-2.373" transform="translate(-0.3617 -0.3617)"/></g></g><path class="cls-8" d="M271.25344,197.90223l2.82852-4.9171.12579-.41855,2.05362.021-2.72232,9.524-4.55517-.07476-2.71674-9.54c.69805,0,1.38983.007,2.08088.007l.13976.48913,2.76566,4.90938" transform="translate(-0.3617 -0.3617)"/><path class="cls-8" d="M319.19051,259.23188q-3.09723-.16244-6.2252-.30882v20.28749l20.70119,1.11312v-3.702l-14.476-1.0097Z" transform="translate(-0.3617 -0.3617)"/><path class="cls-8" d="M293.408,278.52156l6.23425.19356-4.76689-20.48663q-2.72829-.08175-5.4754-.15093l1.47294,7.61985h-14.2922l1.51769-7.85113q-2.6151-.03985-5.24483-.06918l-4.59079,20.27561,5.938.07129,1.76154-9.20535h15.60935Z" transform="translate(-0.3617 -0.3617)"/><path class="cls-8" d="M325.354,194.28467l1.2165,6.29574H312.279l1.33391-6.905q-2.6088-.12059-5.23922-.22991l-4.50485,19.89484,5.93588.15511,1.86569-9.74475,16.91394.378,1.85938,9.72522,4.989.14113-4.50831-19.37492q-2.77128-.175-5.57042-.33543" transform="translate(-0.3617 -0.3617)"/><path class="cls-8" d="M284.43716,213.18158l4.9597.05105V192.84729q-2.47252-.06288-4.9597-.116Z" transform="translate(-0.3617 -0.3617)"/><path class="cls-8" d="M258.07447,213.0437h-4.959V192.4963q2.47252-.0105,4.959-.014Z" transform="translate(-0.3617 -0.3617)"/><path class="cls-8" d="M231.197,212.64831l4.97369-.067v-19.862q-2.49454.05138-4.97369.11251Z" transform="translate(-0.3617 -0.3617)"/><path class="cls-8" d="M201.85679,213.57156h6.30551V193.64042q-3.16849.14464-6.30551.30745Z" transform="translate(-0.3617 -0.3617)"/><path class="cls-8" d="M351.146,214.42282l6.30552.17332v-17.8496q-3.12974-.2882-6.30552-.55758Z" transform="translate(-0.3617 -0.3617)"/></g></g></svg>