<svg id="Layer_1" data-name="Layer 1" xmlns="http://www.w3.org/2000/svg" viewBox="0 0 879.05136 526.07793"><defs><style>.cls-1{fill:#a39c9d;}.cls-2{fill:#fff;}.cls-3{fill:#e11f26;}.cls-4{fill:#1660a9;}</style></defs><title>logo ftc</title><path class="cls-1" d="M523.29428,444.15174a249.93641,249.93641,0,0,1,44.84562,4.02894l34.10339-35.562a242.18171,242.18171,0,0,0-78.949-12.887c-48.14459,0-91.83532,13.42461-124.2465,35.2651l29.74341,28.17434c27.47718-12.0394,59.82567-19.01939,94.50309-19.01939" transform="translate(-100.47432 -276.96104)"/><path class="cls-2" d="M523.29428,399.72877a242.28539,242.28539,0,0,1,78.949,12.88794l37.0918-38.60989c-34.60823-13.63837-74.077-21.40615-116.04081-21.40615-62.53794,0-119.60844,17.2216-163.151,45.53108l38.90454,36.865c32.41118-21.85218,76.10191-35.268,124.2465-35.268" transform="translate(-100.47432 -276.96104)"/><path class="cls-1" d="M345.16449,550.83554A105.93713,105.93713,0,0,1,361.98066,514.819l-14.93944-15.09992a94.994,94.994,0,0,0-4.59,28.91729,93.12016,93.12016,0,0,0,2.71325,22.19914" transform="translate(-100.47432 -276.96104)"/><path class="cls-1" d="M234.75062,634.39629l-6.27016,32.508,62.42943-26.86822c-3.95357-8.2861-4.72544-19.07591-6.99493-27.86344Z" transform="translate(-100.47432 -276.96104)"/><polygon class="cls-1" points="90.347 3.727 0 498.458 42.732 501.941 132.189 0.003 90.347 3.727"/><path class="cls-3" d="M494.63006,565.38V525.37673L399.283,434.99679l-38.91948-36.8553L232.51817,276.961,143.02511,778.8991l189.35378-83.22c-18.85046-16.67128-32.21432-34.4263-42.13886-55.34061l-61.63612,26.44558,6.17758-32.36327L274.7272,426.24338l3.33406-17.47174,75.41289,75.93883,18.20528,18.36706,74.90609,64.5209-72.7006,33.31268c18.88327,18.86849,41.24971,35.47691,71.4096,44.86478l90.70253-40.7301Z" transform="translate(-100.47432 -276.96104)"/><path class="cls-1" d="M701.39288,550.83554a93.30313,93.30313,0,0,0,2.737-22.19914c0-22.345-8.17776-43.43734-22.23358-61.76282l-21.538,22.2992c20.68106,17.2216,35.383,38.41919,41.03465,61.66276" transform="translate(-100.47432 -276.96104)"/><path class="cls-1" d="M741.88794,762.58987,690.84363,713.549a251.969,251.969,0,0,1-26.0114,15.495l77.05571,73.995L979.52568,555.51615l-.245-40.08183Z" transform="translate(-100.47432 -276.96104)"/><path class="cls-1" d="M568.7188,596.35508l-42.03-40.3799L494.51311,525.263l-.115,40.11692L582.85648,650.347a221.93288,221.93288,0,0,0,31.36708-10.29278Z" transform="translate(-100.47432 -276.96104)"/><polygon class="cls-1" points="633.478 95.552 599.645 130.766 562.346 169.659 488.688 246.346 508.891 265.721 620.912 149.077 633.478 135.972 764.157 261.243 784.367 240.263 633.478 95.552"/><path class="cls-2" d="M721.38426,426.03807,682.087,466.9522c14.061,18.30761,22.05457,39.3392,22.05457,61.6842a92.80862,92.80862,0,0,1-2.74541,22.19914c-4.57438,18.82057-14.89461,36.22848-29.6021,51.28926-15.03917,15.4342-34.68912,28.418-57.55877,37.93579a221.586,221.586,0,0,1-31.3817,10.28644,247.34934,247.34934,0,0,1-59.55928,7.179,243.32248,243.32248,0,0,1-72.28446-10.73345c-30.16281-9.38154-56.02932-24.46246-74.92558-43.33712a126.15418,126.15418,0,0,1-17.76022-22.076,102.96654,102.96654,0,0,1-13.154-30.54387,92.51668,92.51668,0,0,1-2.72755-22.19914,94.97523,94.97523,0,0,1,4.6072-28.91729L301.9263,454.03437c-16.52964,24.49884-25.85059,52.11539-25.85059,81.36371a138.03868,138.03868,0,0,0,1.8855,22.21538A146.04757,146.04757,0,0,0,296.41014,607.906,171.01237,171.01237,0,0,0,312.45443,630.727c15.875,19.15583,36.34332,35.96014,60.34382,49.59868,41.66067,23.71835,93.82673,37.84856,150.496,37.84856,39.64,0,77.06383-6.898,110.25956-19.1633a278.45134,278.45134,0,0,0,28.98227-12.60157,234.93809,234.93809,0,0,0,56.22521-39.18781c26.60525-25.41089,44.35182-56.09852,49.84979-89.60807a137.07913,137.07913,0,0,0,1.87381-22.21538c0-41.008-18.25661-78.86519-49.10066-109.36" transform="translate(-100.47432 -276.96104)"/><path class="cls-4" d="M568.50179,596.64469l45.37449,43.56063c22.83067-9.523,42.65832-22.3567,57.7368-37.77613L589.22021,523.3288l110.691-115.3024,33.84707-35.22871,150.51617,144.526-20.199,21.053L740.75,666.79578c-12.99352,17.78475-29.82756,33.5789-49.74876,47.21207L741.67061,762.906,979.31387,515.40118,731.824,277.76994,567.8865,448.48832,494.51311,525.263Z" transform="translate(-100.47432 -276.96104)"/><path class="cls-1" d="M359.34376,582.5983s1.18282,1.96087,1.31244,2.1782c3.63878,5.76419,8.6238,11.05052,13.346,16.31881l73.92372-34.16447L278.02813,408.71414l-4.62637,24.47837L406.68789,565.148Z" transform="translate(-100.47432 -276.96104)"/><path class="cls-1" d="M770.48784,535.39483a136.72279,136.72279,0,0,1-1.87965,22.21539c-5.495,33.50954-23.24487,64.19733-49.82868,89.59864a234.95106,234.95106,0,0,1-56.2434,39.19723,279.59249,279.59249,0,0,1-28.98032,12.60174C600.35811,711.26131,562.9343,718.1721,523.291,718.1721c-56.666,0-108.83211-14.14093-150.49278-37.84645-24.0005-13.63854-44.46877-30.44918-60.34382-49.61037a171.92948,171.92948,0,0,1-16.041-22.81248,146.00568,146.00568,0,0,1-18.45217-50.29258,138.00731,138.00731,0,0,1-1.8855-22.21539c0-2.36532.18094-4.71245.2927-7.03944-.02437-.12994-.05425-.296-.07212-.41322-1.21044,7.28666-.22058,44.36027-.22058,51.88635a137.4379,137.4379,0,0,0,4.54449,34.852,144.93807,144.93807,0,0,0,9.38365,25.643c9.92747,20.91966,24.81363,40.11708,43.67579,56.77342,45.38,40.01588,113.47017,65.495,189.61139,65.495,52.83041,0,101.75857-12.2897,141.94273-33.15625a253.75745,253.75745,0,0,0,25.94838-15.50357c19.92445-13.63626,36.79455-29.64433,49.79131-47.444,18.81408-25.77279,29.51439-55.296,29.51439-86.65962,0-6.62654.58248-37.97835-.06692-50.43844-.114-1.701.06692,3.83532.06692,6.00475" transform="translate(-100.47432 -276.96104)"/></svg>