<svg id="Layer_1" data-name="Layer 1" xmlns="http://www.w3.org/2000/svg" viewBox="0 0 522.78723 522.78723"><defs><style>.cls-1{fill:#626364;}.cls-2{fill:#949492;}.cls-3{fill:#010101;}.cls-4{fill:#fff;}.cls-5{fill:#ed7924;}.cls-6{fill:#231f20;}.cls-7{fill:#242021;}.cls-8{fill:#242121;}.cls-9{fill:#282425;}.cls-10{fill:#979795;}.cls-11{fill:#989997;}.cls-12{fill:#9d9d9c;}.cls-13{fill:#9c9c9a;}.cls-14{fill:#9b9b99;}.cls-15{fill:#a6a6a4;}.cls-16{fill:#a2a2a0;}.cls-17{fill:#afafae;}.cls-18{fill:#b3b3b1;}.cls-19{fill:#aaaaa9;}.cls-20{fill:#b4b4b3;}.cls-21{fill:#f1f0f0;}.cls-22{fill:#f7f8f8;}.cls-23{fill:#f7f8f7;}.cls-24{fill:#ec7824;}.cls-25{fill:#de7126;}.cls-26{fill:#e47325;}</style></defs><title>rover rucus</title><rect class="cls-1" width="522.78723" height="522.78723"/><path class="cls-2" d="M190.44314,406.38172c-7.96141.37528-15.91961.84963-23.88484,1.10635-20.30539.65458-40.58651,1.81385-60.85326,3.1401-18.07814,1.18311-36.12328,2.8678-54.1871,4.2785-1.26011.09841-3.01756.842-3.72179-.27325-.65158-1.03184.40851-2.53173,1.01444-3.68527,4.576-8.71192,12.39372-12.19257,21.66787-12.9954,2.19192-.18973,3.23993-.63029,3.9342-2.9226,3.23354-10.6764,11.97574-15.6986,23.82787-13.982,5.32085.77063,5.32084.77067,5.42314-4.51409.24974-12.90131,10.12741-24.62875,23.882-28.14246a60.72,60.72,0,0,1,9.808-1.638c1.83969-.15768,2.38735-.97456,2.77307-2.50418a48.67919,48.67919,0,0,1,11.6923-21.86813c12.4396-13.23235,27.50395-18.854,45.56046-15.2895,2.61028.51532,3.41013.15392,4.69387-2.55223,1.78043-3.7532.48632-6.65548-.24564-9.99735-2.99411-13.67025,7.53341-27.36712,21.15214-30.02912,5.49105-1.0733,10.97424-1.25572,16.20324,1.129,1.48526.67734,2.33246-.07,3.32-.75649,6.29907-4.37855,13.01868-7.7401,20.64807-9.19578,14.99783-2.8616,32.99944,5.074,40.74547,18.23606,1.00014,1.69948,1.72695,1.7082,3.50748,1.134,15.86484-5.116,31.81628-6.3466,46.27473,3.413,14.49035,9.78112,22.96338,23.54366,22.54485,41.69148-.06195,2.68545.19637,4.30192,3.115,5.64431,5.077,2.335,6.51722,7.17417,6.07387,12.45594-.21453,2.556.19,3.44707,3.08888,4.12069,15.21154,3.53448,23.87343,12.15252,25.97915,27.84039a22.15764,22.15764,0,0,1,.387,2.52934c.02443,1.50839.71934,1.4787,2.00981,1.38293,8.45448-.6274,17.02029-.77777,23.62082,5.58491a18.84337,18.84337,0,0,0,11.17817,5.39337,11.652,11.652,0,0,1,9.12367,7.02137,4.13311,4.13311,0,0,0,3.455,2.44456c9.923,1.992,18.03145,6.51983,21.63007,16.70684,1.36884,3.875,1.23434,4.02464-2.83706,3.70354-15.50905-1.223-31.00737-2.58477-46.51954-3.76527-9.65082-.73441-19.31493-1.32092-28.98078-1.82611-25.596-1.3378-51.1957-2.61588-76.82424-3.15924-2.90579-.06159-5.83.61773-8.71244-.26054,1.01232-1.20435,2.4337-.90232,3.7176-.92414a2.49094,2.49094,0,0,0,2.81-2.50974c1.168-10.85909,2.68492-21.67573,3.96968-32.52045.34737-2.93193-.10551-3.25091-2.89824-2.63391-.37114.082.00915.1866-.26107.047-3.02714-1.56357-6.44912-.65524-9.56037-1.58651-.60993-.18255-1.15006-.922-1.81142-.61894a5.37492,5.37492,0,0,1-5.59639-.454c-1.488-.92726-1.81383.7467-1.99879,1.83624-.71554,4.21509-1.15691,8.46944-1.6694,12.71161-.76423,6.32565-.91972,6.49415-7.22548,5.57266-4.65689-.68054-4.82694-.92748-4.31654-5.625.38992-3.58842.82235-7.17386,1.34033-10.74258.32388-2.23142-.45355-3.13283-2.6179-3.35315-6.51869-.66356-13.0191-1.49353-19.51884-2.324-.75338-.09629-1.51254-.14512-2.26007-.29061-3.30391-.643-3.75764-1.32858-3.07712-4.693,1.39934-6.91833,2.31494-13.86856,1.332-20.936a3.961,3.961,0,0,1,2.06746-4.30123c2.35671-1.42807,4.70648-2.869,7.13646-4.16592a4.38452,4.38452,0,0,0,2.5949-4.3275c-.08289-4.84371.00654-9.69028-.04014-14.53521-.025-2.60137-3.27067-5.76367-5.87916-5.88251a2.32492,2.32492,0,0,0-1.91923,1.03079c-.87679,1.0031-1.588,2.13182-2.372,3.20556a2.26383,2.26383,0,0,0,.14793,3.242c2.55223,3.16077,2.16551,7.07635.73124,10.241-1.33541,2.94665-4.81284,4.37858-8.10836,4.54374-4.15085.208-8.23444-4.19682-8.228-8.36943.004-2.60989-.54793-5.40162,2.0685-7.30334.27344-.19871.16274.12514.13367-.22428-.19425-2.335-2.00962-3.74882-3.2398-5.48448-.80448-1.13513-1.91838-.98006-3.0624-.44394-2.83065,1.32659-4.84737,2.94237-4.54828,6.6568a127.96789,127.96789,0,0,1,.05385,13.10349,4.73069,4.73069,0,0,0,2.8397,4.7745c2.69684,1.39783,5.26054,3.05039,7.9404,4.4819a5.59263,5.59263,0,0,1,3.08139,4.46263c1.05749,7.00963-.02175,13.81413-1.79031,20.56781-.60614,2.31459-2.42857,2.49847-4.29313,2.27635-5.37474-.64035-10.75792-1.21092-16.12595-1.907-2.16635-.28091-4.34142-.49729-6.50037-.83022-2.12735-.328-3.19369.47213-3.35187,2.69645-.2694,3.78827-.9241,7.5374-1.30142,11.31886-.35636,3.57141-1.29771,4.22571-4.81248,3.82381-7.83466-.89588-7.8-.89108-6.733-8.62945.49266-3.57312.82962-7.16725,1.29463-10.746.35976-2.76847-.22754-2.28445-2.70511-2.84458-3.4589-.78195-7.12466.14014-10.383-1.53946-.42727-.22025-.87364-.58352-1.31589-.35642-2.02532,1.03995-3.675.55651-5.52025-.69742-1.47136-.99979-1.893.55446-2.11272,1.68545-.50757,2.61226-.75343,5.26552-1.07311,7.90405-1.72493,14.2365-3.62464,28.45141-5.25607,42.69921C191.64482,404.30656,191.53741,405.53644,190.44314,406.38172Z" transform="translate(-0.10638 -0.10638)"/><path class="cls-3" d="M190.44312,406.38172q3.0986-24.87177,6.19641-49.74361c.21116-1.696.41068-3.39355.61748-5.09016a2.50029,2.50029,0,0,1,1.77229-2.347c1.10909-.32061,1.71955.38165,2.28626,1.23274.9166,1.37646,1.97586,1.60541,3.23227.3086,1.2065-1.24523,2.33781-1.04611,3.25953.4,1.01194,1.58769,2.06605,1.66317,3.4135.29938,1.0802-1.09333,2.24835-.92438,3.09377.3901.97888,1.52192,2.08218,1.859,3.44169.511a1.89512,1.89512,0,0,1,2.3181-.52359,2.36788,2.36788,0,0,1,1.12265,2.69714c-.457,4.05776-.95331,8.11114-1.43447,12.16619a25.15422,25.15422,0,0,1-.50353,3.9502c-.72353,2.52572.00273,3.74336,2.71457,3.67174a19.60874,19.60874,0,0,1,2.54674.2754c4.673.49708,4.64929.49325,5.1774-4.37176.39971-3.68183.979-7.34747,1.269-11.03678.17713-2.2532,1.03856-2.72188,3.22834-2.41282,7.70817,1.088,15.46338,1.84479,23.168,2.95448,2.60645.37538,3.7054-.31946,4.24846-2.9073a59.59841,59.59841,0,0,0,1.32272-19.51067,3.56682,3.56682,0,0,0-2.08841-3.04336c-3.33274-1.82085-6.5637-3.82917-9.90926-5.62486a3.47724,3.47724,0,0,1-2.10659-3.57179q.174-7.97616-.00184-15.958a3.94961,3.94961,0,0,1,2.27992-4.06326c5.591-3.16175,5.54785-3.23716,9.33479,2.0894a21.88441,21.88441,0,0,0,1.34112,1.84166c.84085.95337.77464,1.72251-.44722,2.13568-2.04811.69265-2.3614,2.224-2.156,4.06936a2.5623,2.5623,0,0,1,.00134.28487c-.00794,6.2801.90021,7.55526,6.83132,9.92236a2.62037,2.62037,0,0,0,2.39337-.28592c6.56871-3.29228,6.54085-3.28285,6.41655-10.71036-.02288-1.36828-.24184-2.45183-1.625-2.96-1.98962-.731-1.7779-1.80363-.543-3.09382a8.1333,8.1333,0,0,0,.66046-.92723c4.03767-5.64042,4.01159-5.59542,10.01863-2.08474a3.15093,3.15093,0,0,1,1.81207,3.15475q-.11826,8.40582-.00018,16.814a3.03168,3.03168,0,0,1-1.79346,3.15374c-2.85463,1.50379-5.57165,3.26775-8.41725,4.79019a2.885,2.885,0,0,0-1.78756,3.36641,60.63939,60.63939,0,0,1-1.5119,22.32888c-.42677,1.76848-.32164,2.48347,1.74385,2.70246,7.74188.82089,15.45732,1.88794,23.19477,2.75484,2.34859.26319,3.48364.79388,2.91653,3.64083-.88779,4.45667-1.16942,9.03173-1.79118,13.54516-.1903,1.38151-.00467,2.10506,1.61327,2.20577,2.45514.1527,5.40007,1.50647,7.20705.56508,1.98319-1.0332,1.15615-4.44815,1.52523-6.82082.58338-3.7501.99537-7.52745,1.44373-11.29756.14988-1.2603.27464-2.54709,1.64327-3.06654,1.37121-.52036,1.95981.46461,2.69352,1.442a1.74792,1.74792,0,0,0,2.91846.07743c1.31678-1.37406,2.49569-1.19672,3.44968.38708a1.7745,1.7745,0,0,0,3.04033.47713c1.486-1.36845,2.54538-1.35766,3.63255.42195a1.73627,1.73627,0,0,0,3.04841.34688c.73764-.75285,1.53125-1.20319,2.522-.69662a2.40112,2.40112,0,0,1,1.09562,2.71566q-.93849,8.06181-1.91679,16.119c-.74485,6.127-1.57645,12.24439-2.231,18.38084-.23619,2.21429-.786,3.55268-3.41064,3.09023a20.04094,20.04094,0,0,0-3.9638.06769q-4.79827-.06922-9.59657-.13847a18.2358,18.2358,0,0,0-5.64911-.19248c-1.913.06912-2.54983-.8182-2.59956-2.51913-.05039-1.72286.40515-3.39115.502-5.09974.09271-1.63561-.56641-2.522-2.23185-2.62865a17.74055,17.74055,0,0,1-2.54687-.29145c-1.75867-.3726-2.96787.02638-3.30791,2.029-.31852,1.87583-1.6468,2.41972-3.37,2.24335a3.74813,3.74813,0,0,0-4.07063,1.88248c-1.04372,1.75571-2.9226,1.55158-4.63131,1.3267-9.41585-1.23921-18.86029-2.24412-28.27825-3.46221-6.49852-.8404-13.024-1.4575-19.51041-2.39239-2.03691-.29364-4.01256-.60611-4.101-3.38151-.04442-1.39473-1.3636-1.41895-2.35875-1.58418-2.21977-.3686-3.74018-1.30944-3.67683-3.85367.03207-1.287-.80951-1.83205-1.9633-2.02582-.18728-.03142-.37434-.06528-.561-.09987-5.5867-1.03518-5.62237-1.04019-6.36418,4.55268q-.76785,5.78933-1.4348,11.59284c-.16375,1.414-.26517,2.86286-1.4632,3.89324Q202.62035,406.10693,190.44312,406.38172Z" transform="translate(-0.10638 -0.10638)"/><path class="cls-4" d="M484.49061,119.829c.00007,5.12944-.07517,10.2606.04159,15.38737.03991,1.7534-.46385,2.26535-2.21952,2.26987-4.65169.012-9.30661.17016-13.95228.41862-1.672.08942-2.10182-.44773-2.06351-2.051.09984-4.17716-.03939-8.36019.06981-12.53688.043-1.64648-.45066-2.0989-2.08568-2.00574q-8.53338.48625-17.081.70226c-1.68332.042-2.04036.72093-2.02164,2.24723.071,5.7935.08693,11.58933-.00828,17.38214-.02711,1.649.51249,2.25759,2.11974,2.64787,11.43631,2.77695,22.83035,5.72858,34.27153,8.4847,2.203.53069,3.01646,1.31981,2.9985,3.74892-.12928,17.47713-.08011,34.9557-.05049,52.43374.00271,1.59.03341,2.59817-2.20368,2.43254q-25.9998-1.925-52.02079-3.5566c-2.44227-.15345-3.36039-.73673-3.30237-3.41953.195-9.01979.12928-18.047.03149-27.07-.02133-1.96814.48674-2.64233,2.52189-2.53675,4.36094.22627,8.73719.345,13.10122.24626,2.24986-.05091,2.69582.80417,2.61279,2.83135-.15152,3.6984.0316,7.40958-.07586,11.11107-.05019,1.72844.27982,2.54675,2.27714,2.58543,5.60126.10854,11.20127.39458,16.7946.73039,1.609.09661,2.13934-.30783,2.11982-1.97948-.08328-7.12324-.126-14.24993.02352-21.371.04148-1.97585-.7706-2.57189-2.43245-2.99829-11.30728-2.90126-22.57732-5.95071-33.91076-8.74408-2.42424-.59753-3.06452-1.5972-3.04614-4.00044q.16995-22.22627.00988-44.45442c-.013-2.14888.478-2.86918,2.766-3.0071q26.3057-1.58571,52.59053-3.50584c1.99516-.14393,2.17177.58789,2.15016,2.18943C484.447,109.56954,484.49058,114.69957,484.49061,119.829Z" transform="translate(-0.10638 -0.10638)"/><path class="cls-4" d="M408.5404,157.02681c0,15.48687-.07572,30.97446.07274,46.45991.02547,2.65761-.75408,3.06389-3.17915,2.95027q-26.04855-1.22063-52.11061-2.14456c-1.88606-.06871-2.33752-.64318-2.33341-2.45512q.10236-45.31932.04036-90.63883c-.00309-1.93312.60948-2.3686,2.41161-2.37075,4.27259-.00509,8.554-.10922,12.81379-.42072,2.32659-.17013,3.02508.43348,3.01583,2.86706-.094,24.70265-.01542,49.406-.119,74.10854-.01089,2.601.4058,3.61647,3.2951,3.52956,4.92828-.14825,9.88074.08738,14.80547.42142,2.43248.165,3.1765-.35019,3.16418-2.98237-.11794-25.17751-.028-50.356-.13457-75.53359-.011-2.58918.66874-3.38168,3.2374-3.35475,4.174.04379,8.36049-.19547,12.52481-.52718,2.06612-.16458,2.54388.52248,2.53508,2.49049C408.50929,125.2928,408.54044,141.15988,408.5404,157.02681Z" transform="translate(-0.10638 -0.10638)"/><path class="cls-4" d="M124.11511,156.60114c-.00008-15.671.04732-31.3424-.05315-47.0128-.01444-2.25126.53841-2.87449,2.80287-2.673,4.25242.37829,8.53391.55357,12.80374.561,2.15285.00372,2.64719.71735,2.64237,2.803-.05846,25.35812.02756,50.71664-.06517,76.07453-.00931,2.54588.60075,3.17892,3.1043,3.00048,5.01557-.35746,10.05724-.48084,15.08673-.45258,2.32344.01306,2.96664-.65664,2.95759-3.02589-.09446-24.69341.0054-49.3877-.13979-74.08061-.01783-3.03389.84866-3.64762,3.63826-3.38907a100.11326,100.11326,0,0,0,11.95119.37955c2.35838-.06448,2.74636.796,2.7402,2.91753-.06986,24.02874-.04416,48.05775-.044,72.08669,0,5.98349-.03711,11.96737.02453,17.95023.017,1.64792-.15788,2.50555-2.24037,2.57865q-26.478.92956-52.94523,2.15533c-1.95718.08929-2.30887-.49362-2.30153-2.29011C124.14237,188.32324,124.11519,172.46215,124.11511,156.60114Z" transform="translate(-0.10638 -0.10638)"/><path class="cls-4" d="M275.41648,156.29176c.00014-14.535.045-29.07034-.04966-43.60474-.01374-2.10887.4968-2.8022,2.66436-2.72568,4.36385.15407,8.74158.12332,13.10589-.03849,1.985-.0736,2.554.47368,2.53724,2.50046-.09877,11.9692.008,23.94013-.0972,35.90923-.02078,2.366.50607,2.86669,2.84726,2.24579,5.31694-1.41007,10.69844-2.59282,16.08677-3.70818,1.71924-.35588,2.26228-1.0315,2.24829-2.796-.08418-10.63936.01619-21.28029-.093-31.9192-.02077-2.024.60284-2.58407,2.52812-2.56753,4.65284.04,9.30857-.05891,13.96019-.20006,1.3316-.04039,1.81027.28289,1.806,1.70029q-.06834,22.51483-.0007,45.0299c.00386,1.34293-.53925,1.79853-1.746,2.043-2.69693.54634-5.34653,1.35861-8.059,1.78517-1.9976.31415-2.37681.9128-1.73945,2.90751,4.01468,12.56433,7.87833,25.1769,11.79816,37.77157.96384,3.097.97449,3.09206-2.14126,3.034-4.65356-.08669-9.30849-.26881-13.96018-.20781-1.85781.02436-2.58787-.60017-3.12531-2.363-3.48719-11.43774-7.14282-22.82406-10.65254-34.2551-.51255-1.66937-1.01625-2.23006-2.92349-1.7744-6.763,1.6158-6.78548,1.5217-6.7855,8.532,0,9.025-.03986,18.05035.03379,27.07476.0146,1.78763-.35894,2.48693-2.34639,2.4028-4.45739-.18859-8.92986-.18846-13.39032-.06085-1.99527.05709-2.5608-.53984-2.5498-2.54064C275.45349,185.742,275.41634,171.01678,275.41648,156.29176Z" transform="translate(-0.10638 -0.10638)"/><path class="cls-4" d="M199.59047,156.52c.00007-14.72623.05206-29.45285-.0543-44.17832-.01651-2.28769.41533-3.02507,2.89035-2.98008,17.38019.31584,34.76341.48419,52.14631.60624,1.89655.01332,2.62881.35028,2.59757,2.455q-.1882,12.68079-.00236,25.36568c.02728,1.97966-.66356,2.362-2.43968,2.313-4.4621-.12309-8.93288-.18314-13.3925-.0356-2.09761.06938-2.54577-.70015-2.46568-2.60738.13942-3.31942-.03113-6.651.06937-9.97328.04665-1.543-.3085-2.15472-2.01143-2.134-5.69858.06937-11.40059.01966-17.09841-.11051-1.67751-.03832-2.05755.56245-2.05392,2.13092q.0675,29.07229-.00649,58.1447c-.00515,1.7425.48321,2.2952,2.237,2.25035,5.60207-.14322,11.20956-.22357,16.81169-.13137,1.90669.03137,2.16944-.713,2.12165-2.32618-.10125-3.41728.05781-6.84291-.068-10.25855-.062-1.68415.5538-2.08255,2.12081-2.05486q7.12338.12593,14.25-.003c1.4985-.02829,1.919.42455,1.9079,1.91373q-.09795,13.11038.00052,26.2217c.01229,1.57351-.58461,1.84683-1.99615,1.86191q-26.644.28491-53.286.72182c-2.028.03647-2.31608-.69643-2.30966-2.44328C199.61379,186.35254,199.5904,171.4362,199.59047,156.52Z" transform="translate(-0.10638 -0.10638)"/><path class="cls-5" d="M299.08355,50.77278c-.00053-7.50554.06081-15.01191-.04138-22.516-.02735-2.00834.35682-2.8316,2.62462-2.80752q16.81431.17853,33.6313.00194c2.2081-.02233,2.80143.686,2.65555,2.76257a54.48937,54.48937,0,0,0-.00449,7.12071c.11745,1.92176-.61585,2.408-2.455,2.383-7.02919-.09571-14.06329.07563-21.08946-.09805-2.54847-.063-3.28121.70454-3.1694,3.20913.23556,5.2766-.54962,4.56266,4.52954,4.60672,3.8.033,7.60276.08486,11.39974-.02729,1.80366-.05327,2.60147.42409,2.46725,2.36875a50.13093,50.13093,0,0,0-.00257,6.5511c.11292,1.81386-.636,2.25414-2.31532,2.2199-4.46346-.091-8.93175.04224-13.39448-.06431-1.88544-.045-2.73786.38978-2.67163,2.49839.20079,6.39459-.71078,5.18717,5.27394,5.258,6.26955.0742,12.54165.07888,18.81054-.02095,1.89939-.03024,2.76437.39507,2.6235,2.49126-.17166,2.55367-.0926,5.12906-.02126,7.69224.0387,1.3902-.30345,2.07226-1.883,2.06573q-17.52843-.07238-35.05722.004c-1.83445.00945-1.92834-.95074-1.92351-2.32758C299.09816,66.35394,299.08407,58.56334,299.08355,50.77278Z" transform="translate(-0.10638 -0.10638)"/><path class="cls-5" d="M267.07752,75.75278c-2.128-4.30647-3.98354-8.02942-5.811-11.7661q-8.697-17.78266-17.376-35.57411c-1.40886-2.88624-1.40258-2.89665,1.662-2.90732,2.84958-.00991,5.7027.08221,8.54748-.0351a2.80785,2.80785,0,0,1,3.02785,1.9117c3.14223,6.58858,6.403,13.12065,9.64416,19.71936,1.163-.401,1.29238-1.42362,1.67647-2.19982,2.86313-5.78613,5.74218-11.56577,8.48646-17.40841a2.99312,2.99312,0,0,1,3.26089-2.02418c2.84413.12476,5.70281.13941,8.54568.00111,2.2423-.10908,2.87306.236,1.71051,2.5675-5.93089,11.8948-11.71447,23.86305-17.55028,35.80528C271.04392,67.64442,269.18408,71.44517,267.07752,75.75278Z" transform="translate(-0.10638 -0.10638)"/><path class="cls-2" d="M214.79756,405.8321c.80914-6.30707,1.68651-12.60652,2.38906-18.92545.23446-2.10872.898-3.12549,3.1566-2.51622a16.71533,16.71533,0,0,0,2.815.40667c2.61417.241,5.57388.06511,4.241,4.27192-.34476,1.08808.39568,1.5,1.41047,1.584.84941.07023,1.69137.34883,2.53529.343,1.77206-.01215,2.77685.55488,2.20051,2.51284-.5124,1.74078.38332,2.01434,1.87337,2.19449q24.87717,3.00757,49.73842,6.14592c2.04335.25633,3.86681.46474,3.7575-2.49176-.03729-1.0088.68293-1.20416,1.5756-1.0777,1.03357.1464,2.10014.11936,3.11169.34778,1.64915.3725,2.35252-.26788,2.24934-1.86891-.17483-2.71248,1.18494-3.03834,3.52547-2.67417,6.59632,1.02635,6.60861.94732,5.74593,7.45692-.50663,3.82315-.505,3.78288,3.36214,3.93955,1.30881.053,2.66383-.21329,3.9297.36195-7.20911.62872-14.3696-.58714-21.58139-.50463-19.55911.2238-39.123.01131-58.683.1907C226.36938,405.582,220.585,405.87128,214.79756,405.8321Z" transform="translate(-0.10638 -0.10638)"/><path class="cls-6" d="M419.82938,464.68265c-1.75961,4.69856-3.38141,8.82293-4.8337,13.00615-.6014,1.73236-1.36142,2.65141-3.40437,2.62754-1.949-.02279-2.585-.95232-3.14493-2.5537-1.43924-4.11612-3.03508-8.1775-4.70247-12.6182-1.56507,2.35683-2.13585,4.8213-3.06911,7.11243-.8237,2.02224-1.65684,4.04847-2.31911,6.126-.50922,1.59751-1.54531,1.88088-3.03017,1.89776a2.648,2.648,0,0,1-2.96328-1.98952c-1.5323-4.34553-3.21207-8.639-5.07054-13.58293-1.83728,4.87611-3.42595,9.12239-5.04266,13.358-.32639.85513-.44745,1.95908-1.65079,2.08933-1.12228.12149-2.45062.50184-3.31845-.22884-1.01159-.85179.07907-1.914.40893-2.79862,2.05631-5.51377,4.27346-10.96881,6.25546-16.50838.64717-1.80884,1.68493-2.16877,3.40625-2.20089a2.91758,2.91758,0,0,1,3.311,2.31361c1.39118,4.13537,3.002,8.19682,4.7619,12.92751,1.67855-4.45532,3.2066-8.37267,4.62113-12.33059.60938-1.705,1.153-2.9288,3.455-2.9572,2.40955-.02975,3.04363,1.186,3.68663,3.04475,1.354,3.91408,2.88314,7.76761,4.55491,12.21687,1.57857-4.236,2.91181-7.86425,4.28511-11.47727.67567-1.7776.79019-3.78007,3.72477-3.79576,2.83244-.01514,3.18374,1.7437,3.87719,3.60951,1.35245,3.63927,2.76232,7.2572,4.44891,11.67041,1.69321-4.58658,3.2667-8.49763,4.56083-12.49909.67191-2.07753,1.73973-2.84187,3.90677-2.7279a2.81581,2.81581,0,0,1,2.92132,2.0894c2.07311,5.60965,4.267,11.17458,6.34166,16.78371.33212.898,1.60822,2.32806-.10694,2.78428-1.43176.38084-3.49631,1.01023-4.35878-1.3179q-2.22636-6.00991-4.45835-12.0177c-.16227-.43688-.34023-.86794-.7628-1.94178-1.82106,4.77613-3.52809,9.02853-5.04538,13.3476a2.79029,2.79029,0,0,1-3.1362,2.14835,2.69221,2.69221,0,0,1-2.94673-2.01388C423.4313,473.90762,421.71,469.59683,419.82938,464.68265Z" transform="translate(-0.10638 -0.10638)"/><path class="cls-2" d="M236.32482,245.58867c2.60015,1.317,4.31886-.36216,6.36988-2.13021,9.05047-7.80167,25.95075-7.44536,34.88151.51972.7271.64849,1.61418,1.3018,1.00275,2.35755-.60887,1.05136-1.72543.58858-2.58976.35466-6.61479-1.79037-13.24688-2.3073-19.96614-.57561a30.93217,30.93217,0,0,0-14.514,8.04914,3.84109,3.84109,0,0,1-4.02518,1.17915,23.00515,23.00515,0,0,0-15.05071,1.17968c-.70976.31885-1.66255,1.068-2.31821.15107-.5557-.77709.07922-1.62619.58909-2.32493A20.7682,20.7682,0,0,1,236.32482,245.58867Z" transform="translate(-0.10638 -0.10638)"/><path class="cls-2" d="M85.30474,355.09029a26.75545,26.75545,0,0,1,.41551-3.74436c1.022-4.3483,2.86526-5.48573,7.1728-4.22974,1.63278.47609,2.1706-.13067,2.72789-1.42226,1.75648-4.071,4.12962-7.68022,8.0103-10.07012a12.72645,12.72645,0,0,1,6.93439-2.22407c2.00088.02753,3.5796.75247,4.27839,2.65427a4.24248,4.24248,0,0,1-1.60046,5.28257c-1.99535,1.44038-4.0489,2.80059-6.035,4.2532a31.54081,31.54081,0,0,0-7.77332,8.59454c-.90084,1.39727-1.85767,2.73657-3.71869,2.67995-1.85989-.05655-2.50787,1.05074-2.77136,2.58432a65.33061,65.33061,0,0,0-1.26194,9.84691c-.01713.92731.10312,2.06873-1.08129,2.36178-1.31675.32569-1.834-.80276-2.26359-1.72213C86.21494,365.39079,85.52826,360.536,85.30474,355.09029Z" transform="translate(-0.10638 -0.10638)"/><path class="cls-2" d="M384.99831,295.62018c-1.27464-1.56852-1.5837-3.57858-2.372-5.33935a49.25933,49.25933,0,0,0-28.64263-26.89343c-.8085-.30607-2.29719-.24056-2.05328-1.44678.20946-1.03594,1.59232-.71346,2.50216-.73724,18.68658-.48836,32.19361,13.15422,31.47987,31.80739C385.87887,293.88646,386.22137,294.94493,384.99831,295.62018Z" transform="translate(-0.10638 -0.10638)"/><path class="cls-7" d="M296.436,469.385c0,2.85009.01039,5.70027-.006,8.55025-.00529.91812.22218,2.15183-1.12463,2.204-1.18764.046-2.88563.90454-3.45121-.85057-.45238-1.40381-.82163-.78943-1.47139-.31535a9.50782,9.50782,0,0,1-10.48629.7153c-3.58293-1.80662-4.44073-5.19926-4.42763-8.9194.01171-3.32506.06058-6.65162-.02034-9.97473-.04169-1.7113.58534-2.35416,2.32231-2.36574,1.785-.01187,2.62122.48806,2.55947,2.42236-.10607,3.32168-.078,6.65033-.01136,9.9741.0752,3.74951,1.8611,5.72035,5.17065,5.87416,3.56892.16589,5.97766-1.87687,6.18019-5.58824.18611-3.41029.11751-6.839.04194-10.257-.036-1.62614.34926-2.45225,2.19514-2.42733,1.75.02366,2.64713.442,2.561,2.40934C296.34341,463.68077,296.43605,466.53492,296.436,469.385Z" transform="translate(-0.10638 -0.10638)"/><path class="cls-8" d="M345.62934,480.84153a10.71588,10.71588,0,0,1-10.16244-6.93026c-1.77206-4.74126-.54325-10.281,2.96339-13.359a11.88807,11.88807,0,0,1,12.82488-1.47776c1.03825.5396,2.79517.90061,1.65726,2.84946-.87228,1.49394-1.69776,2.15858-3.61355,1.1647-3.37667-1.75177-6.69578-.79931-8.53716,2.00592a8.15575,8.15575,0,0,0,.76295,9.53361c2.01433,2.06535,4.6378,2.53856,7.8293.90249,2.02909-1.04026,2.7777.11425,3.5901,1.41032,1.09851,1.75247-.58039,2.07367-1.54587,2.63175A11.43119,11.43119,0,0,1,345.62934,480.84153Z" transform="translate(-0.10638 -0.10638)"/><path class="cls-2" d="M430.74944,354.4758a8.51605,8.51605,0,0,1,6.26029,3.06633c.94015,1.07879,1.80429,1.79012,3.398,1.24826,1.29538-.44049,2.39014.3948,3.26813,1.2967a21.394,21.394,0,0,1,5.66791,11.54924c.1354.76761.31257,1.66258-.49739,2.03236-.84222.38447-1.31424-.53017-1.85346-1.00473-1.92-1.68955-3.76768-3.46363-5.72463-5.10826-4.40514-3.70208-9.75031-4.88081-15.27509-5.5017-1.05675-.11877-2.18078-.10294-2.64434-1.26448-.50971-1.27711.62914-1.88725,1.33693-2.557C426.52227,356.49453,428.20013,354.4228,430.74944,354.4758Z" transform="translate(-0.10638 -0.10638)"/><path class="cls-9" d="M331.68586,464.322c-.00007,4.54325-.05418,9.08748.0277,13.62927.03087,1.71315-.56333,2.34487-2.29426,2.34664-1.74774.00181-2.59086-.44766-2.57673-2.38787q.09937-13.629.0033-27.25915c-.01145-1.82088.59786-2.50219,2.46861-2.505,1.91391-.00282,2.43684.75334,2.40131,2.54691C331.62573,455.23426,331.68593,459.77869,331.68586,464.322Z" transform="translate(-0.10638 -0.10638)"/><path class="cls-4" d="M198.11882,475.57365c3.48554-2.33335,3.64412-2.88739,2.16972-6.5198-.85409-2.10415-1.72467-4.2017-2.56727-6.31037-.19251-.4818-.66749-1.10767.13647-1.42042.69694-.27112.99511.34292,1.21586.875.50739,1.22313.9909,2.45622,1.48293,3.68572.4541,1.13485.90659,2.27032,1.566,3.922,1.05958-2.8007,1.93943-5.15395,2.8446-7.49742.19784-.51225.41281-1.22321,1.1337-.98894.83528.27147.328.97759.16471,1.41638-1.38636,3.72355-2.79242,7.44049-4.258,11.13345C201.40156,475.39617,200.38916,476.36158,198.11882,475.57365Z" transform="translate(-0.10638 -0.10638)"/><path class="cls-4" d="M154.4292,471.67962c-2.52072.77783-3.81453.14253-3.93211-2.26493-.06926-1.418-.0149-2.8418-.02157-4.263-.00267-.5681.20169-1.47849-.065-1.651-2.5759-1.66739.56817-3.11912.12893-4.69373a.72306.72306,0,0,1,.86021-.85147c.58564.07548.68185.57652.70857,1.06274.051.92856-.1296,1.94,1.181,2.24436a.47339.47339,0,0,1,.20259.85819c-2.749,2.00028-.82045,4.84427-1.32894,7.24429C151.84938,470.84491,153.50043,470.62867,154.4292,471.67962Z" transform="translate(-0.10638 -0.10638)"/><path class="cls-10" d="M184.50374,295.9001a2.79006,2.79006,0,0,1-2.97336-2.85109,2.64849,2.64849,0,0,1,2.79065-2.89638,2.73858,2.73858,0,0,1,3.05023,2.94138A2.83666,2.83666,0,0,1,184.50374,295.9001Z" transform="translate(-0.10638 -0.10638)"/><path class="cls-4" d="M121.91658,466.95011c-2.008-.06639-3.97134-.46206-4.25734-2.82245-.20731-1.71081,1.07182-2.75156,2.66529-3.20176a4.088,4.088,0,0,1,4.94006,1.73778c.28073.42842.70171,1.04294.09015,1.519-.67742.52721-.99344-.01288-1.21309-.58a1.99633,1.99633,0,0,0-1.983-1.32572c-1.11651-.02735-2.49465-.282-2.86433,1.14382-.3996,1.54121,1.03212,1.79089,2.06077,2.1676.7822.28647,1.715.07945,2.41106.69529C123.35285,467.06979,122.43783,466.46358,121.91658,466.95011Z" transform="translate(-0.10638 -0.10638)"/><path class="cls-4" d="M121.91658,466.95011c.43636-.72069,1.18228-.58226,1.84886-.6662,1.84361.38951,2.4362,1.6432,2.19832,3.35342-.238,1.7111-1.55856,2.23146-3.03133,2.45978-3.56883.5532-5.40456-.75637-5.17117-4.00129,1.603,1.76535,3.04826,3.70608,5.66376,2.54924a1.575,1.575,0,0,0,1.14-1.48375C124.41059,467.62108,122.94364,467.52145,121.91658,466.95011Z" transform="translate(-0.10638 -0.10638)"/><path class="cls-4" d="M147.55693,465.03657c-.20669-4.04159-2.77044-5.36792-6.34347-3.3266-2.9561-1.178-2.74453.77556-2.68335,2.66974.05477,1.69541-.02084,3.39489.02631,5.09071.02206.79507-.30628,2.15351.7024,2.15026,1.30976-.00447.77291-1.43161.84486-2.273a27.81065,27.81065,0,0,0,.018-3.10954,4.30081,4.30081,0,0,1,1.7447-3.95014l-.0004-.00041h.0003c3.73125-.02723,4.02849.263,4.05806,3.99282.00975,1.228-.03079,2.45715.01555,3.68349.02642.69914-.28037,1.82264.7346,1.85069,1.30957.03617.84395-1.22187.87738-1.96247C147.6241,468.24977,147.63884,466.63809,147.55693,465.03657Z" transform="translate(-0.10638 -0.10638)"/><path class="cls-11" d="M401.28369,331.19575c-.22174,1.36675-.94957,2.27049-2.39229,2.21909a2.06421,2.06421,0,0,1-2.14821-2.12736,2.08707,2.08707,0,0,1,2.19216-2.36038C400.37528,328.88694,401.10152,329.79827,401.28369,331.19575Z" transform="translate(-0.10638 -0.10638)"/><path class="cls-12" d="M470.69475,379.13051c-.27631,1.32844-1.04221,2.17108-2.3316,2.11042a1.98639,1.98639,0,0,1-1.99443-2.279,2.04511,2.04511,0,0,1,2.25483-2.04875C470.00649,376.95791,470.48822,377.98432,470.69475,379.13051Z" transform="translate(-0.10638 -0.10638)"/><path class="cls-13" d="M40.33584,397.26351A2.09353,2.09353,0,0,1,38.19,395.17067a1.97165,1.97165,0,0,1,1.99326-2.24889A2.06015,2.06015,0,0,1,42.4353,394.967C42.51162,396.265,41.63229,396.983,40.33584,397.26351Z" transform="translate(-0.10638 -0.10638)"/><path class="cls-14" d="M129.733,331.73c-1.31094-.21531-2.12018-.89717-2.12228-2.23629a1.94072,1.94072,0,0,1,1.87813-2.08856,1.98053,1.98053,0,0,1,2.20256,2.048C131.81251,330.86185,130.93849,331.46231,129.733,331.73Z" transform="translate(-0.10638 -0.10638)"/><path class="cls-4" d="M193.86567,463.91958v-.00122a.75227.75227,0,0,0,.12865-.341l-.00061-.0004a2.86317,2.86317,0,0,0,1.84754-3.65382c-.419-1.91207-1.82416-2.77217-3.777-2.71282h-.0001l.0001-.00041-6.84384.05975c-.62262,4.32491-.10274,8.6738-.27966,13.00806-.04542,1.11131.47334,1.53486,1.531,1.467,2.25482-.14429,4.53119.298,6.77189-.24713.005.00772.012.01178.01687.01991,2.171-.05446,2.873-1.58932,3.19765-3.34286C196.85155,466.05033,195.4929,464.87561,193.86567,463.91958Zm-6.96517-4.81309c.08322-.07317.17854-.1317.26827-.19714a6.759,6.759,0,0,0,2.07242.22112c3.94536.204,4.35936.54793,3.4647,3.82332a3.17929,3.17929,0,0,0-.59569.02967,10.59776,10.59776,0,0,1-4.81319.148,4.08813,4.08813,0,0,1-.51307-.465A4.33141,4.33141,0,0,1,186.9005,459.10649Zm5.30543,10.9708a.92072.92072,0,0,0-.09471.14836,8.68721,8.68721,0,0,0-2.16784-.165c-1.57073.02724-2.72-.276-2.751-2.26245-.03435-2.20066,1.29056-2.38032,2.93313-2.332a11.19152,11.19152,0,0,0,2.05474-.07479c.01026.01179.0124.02723.02337.039C194.4634,467.77866,194.4634,467.77622,192.20593,470.07729Z" transform="translate(-0.10638 -0.10638)"/><path class="cls-4" d="M100.80309,471.54776c-.97763-3.01712-.25676-6.11706-.42587-9.17389-.01758-.31793.26957-.6527.41532-.97968,1.56069,2.0736,3.38213-1.33,5.20524.30874-1.24452.81922-2.3654,1.557-3.48629,2.29486-.4581.06368-1.03761-.48754-1.12511.67278C101.21357,466.96167,102.06447,469.35487,100.80309,471.54776Z" transform="translate(-0.10638 -0.10638)"/><path class="cls-4" d="M185.22047,457.26947c.00073,3.79841.14021,7.6037-.04877,11.39264-.11717,2.3489.76624,3.01921,2.94731,2.834,1.696-.144,3.4156-.00961,5.12486.00125-2.36518,1.07068-4.85439.30676-7.28051.47919-.61649.04381-1.21806-.27071-1.19526-.93945C184.92442,466.44813,184.0228,461.82271,185.22047,457.26947Z" transform="translate(-0.10638 -0.10638)"/><path class="cls-4" d="M100.80309,471.54776v-9.3387c.69939.73229,1.204,1.26061,1.70851,1.78887-.90537,2.03765-.35167,4.19738-.54575,6.29391C101.90841,470.91225,102.43344,472.29633,100.80309,471.54776Z" transform="translate(-0.10638 -0.10638)"/><path class="cls-4" d="M110.247,470.6931a3.20164,3.20164,0,0,1-1.96278-3.70828c1.851-.00691,3.70483-.0813,5.55227-.00366,2.48977.10405,3.00254-.90279,1.85658-2.99452l-.0002-.00121c-1.30794-2.70389-3.232-3.77414-5.536-3.07947-2.6611.80238-4.18854,3.95664-3.49722,7.22146.629,2.97134,2.43378,4.29564,5.51893,4.00623,2.22912-.20893,3.512-1.34218,3.73186-4.2932C114.03848,469.65943,112.78247,471.852,110.247,470.6931Zm1.11262-7.73118c1.63973-.091,2.142,1.143,2.53845,2.41528a5.611,5.611,0,0,0-4.85912-.06341C109.32294,464.10818,109.81661,463.04768,111.35959,462.96192Z" transform="translate(-0.10638 -0.10638)"/><path class="cls-4" d="M175.91567,456.82128c-1.74917,2.01246-.2014,4.09037-1.50741,5.50735a4.0793,4.0793,0,0,0-5.78162-.76743c-2.197,1.43405-3.00132,4.88788-1.872,7.66493a4.19911,4.19911,0,0,0,5.18,2.8311,18.83748,18.83748,0,0,1,4.15755-.59426A109.71742,109.71742,0,0,0,175.91567,456.82128Zm-7.31627,9.82453c-.0128-2.76444,1.36526-3.71926,5.00769-3.47537a1.09918,1.09918,0,0,0,.2072-.12072c.18343,2.13806-.01839,4.30377.45587,6.4207a6.06381,6.06381,0,0,0-1.63506.30242C170.06323,470.32727,168.61129,469.19442,168.5994,466.64581Z" transform="translate(-0.10638 -0.10638)"/><path class="cls-4" d="M164.74184,464.52279c-1.07838-2.9998-2.94573-4.27776-5.38317-3.68431-2.83243.68939-4.38619,3.68553-3.7783,7.28569.47527,2.81444,2.46071,4.2741,5.50227,4.00623,2.23094-.19673,3.60605-1.2174,3.56825-4.11923-1.871,1.73037-3.26106,4.04688-5.88588,2.47666-1.24544-.74507-2.1154-1.90434-1.47134-3.55748h.0001c1.94265.011,3.88612-.01179,5.82755.04308,1.91532.05447,2.68366-.57232,1.62113-2.4482Zm-6.97178.9918a2.44627,2.44627,0,0,1,2.34323-2.5291c1.58577-.19023,2.295.93612,2.73508,2.26814.01565.048.04207.089.05914.13577A5.246,5.246,0,0,0,157.77006,465.51459Z" transform="translate(-0.10638 -0.10638)"/><path class="cls-4" d="M88.29442,457.21839c.0001,3.88223-.01226,7.76451.00949,11.64664.00514.918-.25276,1.92111.594,2.66275-.4263.425-1.04809.40385-1.04431-.14748C87.886,466.65731,87.00563,461.9006,88.29442,457.21839Z" transform="translate(-0.10638 -0.10638)"/><path class="cls-4" d="M128.853,467.07505l.00051-.00081c2.47148-.48615,5.06551.41989,7.49725-.51582a1.13834,1.13834,0,0,0,.48239-.18576c-.12855-3.77942-1.80923-5.76343-4.776-5.63864-2.697.11341-4.70933,2.495-4.81593,5.69921-.10569,3.1758,1.82843,5.56344,4.62966,5.71506,3.14633.1699,4.39025-.84222,4.57612-3.72374C131.23711,471.92757,129.68132,471.65116,128.853,467.07505Zm3.36136-4.0798c1.4937-.022,2.16885,1.1422,2.7,2.35187a6.83109,6.83109,0,0,0-5.22546-.09227C130.099,464.06225,130.7219,463.0172,132.21438,462.99525Z" transform="translate(-0.10638 -0.10638)"/><path class="cls-4" d="M88.265,471.508c-.12071-7.00366-.12071-7.00366,7.54457-6.8496-.08269.05768-.171.17138-.24893.16465C90.69663,464.40088,87.72541,466.03606,88.265,471.508Z" transform="translate(-0.10638 -0.10638)"/><path class="cls-15" d="M190.40985,283.61392a1.36653,1.36653,0,0,1-1.489,1.35323,1.27732,1.27732,0,0,1-1.28539-1.254,1.29693,1.29693,0,0,1,1.32442-1.49252C189.83656,282.18082,190.31,282.74694,190.40985,283.61392Z" transform="translate(-0.10638 -0.10638)"/><path class="cls-16" d="M407.5624,337.50675a1.09758,1.09758,0,0,1-1.32938,1.11866,1.14434,1.14434,0,0,1,.05815-2.26931A1.09382,1.09382,0,0,1,407.5624,337.50675Z" transform="translate(-0.10638 -0.10638)"/><path class="cls-17" d="M129.26841,321.29162a1.0765,1.0765,0,0,1-.996,1.10325.99285.99285,0,0,1-1.09966-.98444c-.08078-.67744.33273-1.01987.967-1.06184A.9541.9541,0,0,1,129.26841,321.29162Z" transform="translate(-0.10638 -0.10638)"/><path class="cls-18" d="M400.808,323.39734c.65993.10646,1.05206.49659.946,1.159a.9091.9091,0,0,1-.99836.81393.9486.9486,0,0,1-.95281-1.14658A.96315.96315,0,0,1,400.808,323.39734Z" transform="translate(-0.10638 -0.10638)"/><path class="cls-19" d="M308.14707,265.36787c-.77662-.20464-1.17379-.62091-1.08745-1.24643a.92023.92023,0,0,1,1.04016-.75207c.72752.0371.96812.51921.86821,1.15159A.9931.9931,0,0,1,308.14707,265.36787Z" transform="translate(-0.10638 -0.10638)"/><path class="cls-20" d="M176.14115,291.2101c-.56292-.1115-.92012-.38831-.809-.93952a.87228.87228,0,0,1,1.05461-.67391.67853.67853,0,0,1,.64447.75858A.94946.94946,0,0,1,176.14115,291.2101Z" transform="translate(-0.10638 -0.10638)"/><path class="cls-19" d="M34.035,392.68212c.46726-.14686.64221.099.62279.36866-.01561.21687-.23423.4192-.36277.628-.18982-.13975-.50828-.25842-.53556-.42487C33.72826,393.06331,33.95561,392.83033,34.035,392.68212Z" transform="translate(-0.10638 -0.10638)"/><path class="cls-4" d="M267.10764,286.83218a10.65491,10.65491,0,0,1,9.33346,6.37065c.33745.81987-.0542,1.249-.42553,1.76917-2.64568,3.706-5.31589,7.39469-7.9443,11.11292-.73811,1.04416-1.30876,1.175-2.1077.03835-2.6183-3.725-5.29741-7.40719-7.93885-11.116-.36434-.51159-.81906-.93454-.51319-1.765,1.19773-3.25181,5.56376-6.40947,9.02663-6.41Q266.82291,286.83212,267.10764,286.83218Z" transform="translate(-0.10638 -0.10638)"/><path class="cls-21" d="M268.88753,279.393c.12624,1.32422.00644,2.44033-2.01113,2.3802-1.94577-.058-1.75308-1.27452-1.75973-2.515-.00724-1.35281-.16578-2.728,1.892-2.73774C269.085,276.51063,268.90488,277.90013,268.88753,279.393Z" transform="translate(-0.10638 -0.10638)"/><path class="cls-22" d="M254.43272,281.52754a5.57774,5.57774,0,0,1,3.00829,3.054c.30743,1.06352-1.00863,2.55-1.81428,2.3352a4.89677,4.89677,0,0,1-3.2209-3.22757C252.13228,282.76761,253.408,282.07527,254.43272,281.52754Z" transform="translate(-0.10638 -0.10638)"/><path class="cls-23" d="M281.6896,283.67574a6.32556,6.32556,0,0,1-3.28469,3.25576c-.79308.25076-1.96329-1.17614-1.84208-2.10922a4.01381,4.01381,0,0,1,2.92623-3.10684C280.51613,281.40724,281.15315,282.66291,281.6896,283.67574Z" transform="translate(-0.10638 -0.10638)"/><path class="cls-24" d="M239.85951,372.35428c.12718-3.75759.21952-3.85871,3.69977-3.43246,7.34106.89912,14.66524,1.971,22.02537,2.66328,3.0965.29124,1.75009,2.09574,1.81273,3.57764.08291,1.96168-.784,2.33-2.61306,2.08484-7.51688-1.00766-15.05268-1.87413-22.58179-2.7904C240.87707,374.29585,239.338,374.36994,239.85951,372.35428Z" transform="translate(-0.10638 -0.10638)"/><path class="cls-25" d="M285.62681,379.49549c-1.60284-.17734-2.70248-.91178-2.76846-2.4368a2.5074,2.5074,0,0,1,5.00739-.26371C287.97545,378.39182,286.8997,379.10782,285.62681,379.49549Z" transform="translate(-0.10638 -0.10638)"/><path class="cls-26" d="M275.28771,378.14043c-1.71118-.15374-2.64814-1.02471-2.6114-2.566a2.26789,2.26789,0,0,1,2.35753-2.35321,2.29278,2.29278,0,0,1,2.59555,2.38718A2.3656,2.3656,0,0,1,275.28771,378.14043Z" transform="translate(-0.10638 -0.10638)"/><path class="cls-4" d="M94.39144,163.32415c-.48218-1.64663-.37335-2.36894,1.48455-2.71282,2.51192-.4646,4.93493-1.42145,7.4498-1.85475,2.08573-.35933,2.71232-1.22594,2.6985-3.36522q-.15045-23.36244.00376-46.7265c.016-2.26773-.67394-2.7738-2.82065-2.90387q-25.87476-1.56758-51.73063-3.43554c-2.394-.176-3.01158.2508-3.00132,2.6986.09471,22.50863.05569,45.01726.05579,67.5259,0,12.1569.04776,24.31379-.04583,36.46988-.01585,2.05677.54295,2.55633,2.55816,2.334,4.43334-.48858,8.89066-.81132,13.34676-1.019,1.84083-.08577,2.35563-.69142,2.34029-2.536-.09055-10.92121-.04472-21.84364-.04472-32.76566,0-6.56866.033-6.46094,6.22844-8.36284,2.28816-.7024,2.99492-.21584,3.622,2.086,3.41654,12.5398,7.03794,25.02391,10.6005,37.52428.32132,1.12716.30537,2.47788,2.18461,2.33765,5.861-.43656,11.7307-.75605,17.83415-1.1361C102.83111,192.4738,98.6566,177.88576,94.39144,163.32415ZM87.81231,143.997c.00285.96945-.23392,1.57916-1.29991,1.834-6.52852,1.56006-13.04484,3.17174-19.82436,4.82935,0-9.44489.02052-18.628-.02358-27.81153-.0062-1.28893.46247-1.59542,1.66523-1.53729q8.95139.43107,17.90864.73247c1.25266.04227,1.58872.57923,1.58211,1.75151C87.78254,130.52923,87.79219,137.26292,87.81231,143.997Z" transform="translate(-0.10638 -0.10638)"/><path class="cls-5" d="M176.24634,57.42078c-.76041-2.50633-.26217-3.701,2.33826-3.905,2.25686-.17763,2.84716-1.369,2.80367-3.58065-.14582-7.40112-.10355-14.80753-.021-22.21069.01941-1.74906-.53035-2.2661-2.26854-2.25553q-17.08573.10061-34.172-.00854c-1.91989-.01463-2.42534.604-2.40573,2.43479.0813,7.593.03415,15.18718.03425,22.78138.0001,7.78362.044,15.56764-.03272,23.35086-.01779,1.80556.438,2.57706,2.389,2.45511a63.52328,63.52328,0,0,1,7.68423-.00244c1.96816.11585,2.42829-.71133,2.34873-2.49292-.11849-2.65225-.03039-5.31427-.03029-7.97222,0-6.52232.00824-6.48574,6.432-7.93523,1.35427-.30567,2.062-.2382,2.39445,1.32755a69.16445,69.16445,0,0,0,1.94885,7.13041c1.07015,3.27051.46755,7.969,3.37131,9.505,2.7552,1.45721,6.85848.31867,10.366.42232,1.658.04878,1.87141-.51541,1.44847-2.0214C179.285,68.7822,177.95273,63.04519,176.24634,57.42078Zm-7.08671-15.67332c-.04278,1.30316-.3574,2.10229-1.73718,2.45145-3.56561.902-7.11049,1.88849-10.65009,2.88924-1.34981.38168-1.78473.002-1.89174-1.43161-.59559-7.9836-.63227-7.98117,7.28853-7.98117q1.55782,0,3.11574.00041C169.34143,37.67741,169.29326,37.67578,169.15963,41.74746Z" transform="translate(-0.10638 -0.10638)"/><path class="cls-5" d="M234.35042,51.03869c.0001-7.59989-.0628-15.20059.04228-22.79926.02794-2.0145-.36167-2.81485-2.61985-2.79046q-16.81272.17987-33.6283.00244c-2.22749-.02236-2.6614.74548-2.65114,2.78477q.11446,22.657.00041,45.314c-.01088,2.12628.3958,2.98151,2.78853,2.95265q16.66974-.2,33.34305,0c2.39374.02845,2.79636-.84222,2.76648-2.95021C234.28559,66.04946,234.35042,58.54347,234.35042,51.03869ZM220.026,64.285c-3.32274-.10081-6.652-.08658-9.97575-.00488-1.54339.03821-2.20919-.387-2.19355-2.069.07-7.506.05376-15.01362.00956-22.52-.00844-1.43689.44326-2.062,1.95434-2.03116,3.41928.06951,6.84282.08617,10.26109-.00651,1.70811-.04633,2.07994.73776,2.05341,2.24213-.06534,3.705-.02144,7.41169-.02174,11.11754s-.05386,7.41291.02489,11.11672C222.17178,63.70531,221.67405,64.33454,220.026,64.285Z" transform="translate(-0.10638 -0.10638)"/><path class="cls-5" d="M385.19434,57.46753c-.78836-2.56365-.22377-3.72821,2.37108-3.96071,2.229-.19917,2.89218-1.35032,2.84736-3.58838-.14633-7.30925-.09257-14.6238-.02693-21.9359.01545-1.71452-.2766-2.54211-2.30838-2.525q-17.09274.14388-34.18731.00894c-1.88544-.0126-2.42321.60036-2.40268,2.44089.08577,7.69135.03618,15.38432.03587,23.07648-.0004,5.31793-.09206,10.6383.03466,15.95339.07357,3.086-1.42836,7.21942.659,8.98231,2.13583,1.80435,6.18738.38372,9.39671.52233.09471.00406.19054-.00935.28464-.00082,1.3368.12316,1.86613-.47557,1.84-1.81939-.05528-2.84818-.01413-5.698-.01393-8.547.00051-6.28331.0188-6.21624,6.12886-7.91491,1.75-.48655,2.48946-.19348,2.93,1.62266,1.18539,4.88666,2.60877,9.716,3.79151,14.60307.38849,1.60518,1.1046,2.15636,2.72614,2.0901,2.84432-.11625,5.70235-.14267,8.54383.00325,2.16093.111,2.32016-.73206,1.81756-2.52747C388.12747,68.46922,386.86628,62.90577,385.19434,57.46753Zm-7.16263-15.579a2.068,2.068,0,0,1-1.82355,2.34009c-3.49041.87311-6.962,1.8267-10.41962,2.823-1.45569.41948-2.20981.13535-2.06581-1.51047a2.19209,2.19209,0,0,0-.00071-.28413c-.325-7.5816-.325-7.5816,7.20479-7.5816h3.128C378.2001,37.67659,378.13018,37.675,378.03171,41.8885Z" transform="translate(-0.10638 -0.10638)"/><path class="cls-7" d="M266.788,476.88455a15.18213,15.18213,0,0,0,5.72909-11.5228c.0696-10.53749-7.32034-17.91992-16.76584-17.75733a16.44342,16.44342,0,0,0-16.30488,17.24965,16.13245,16.13245,0,0,0,17.24445,15.86518c2.92755-.23291,4.59928.11828,5.24487,3.21888.54641,2.62422,2.90346,1.98036,4.43212,1.58445,2.04-.52842.2509-1.97954.15019-3.00589a4.98215,4.98215,0,0,0-.70107-1.85516C264.91613,479.0592,265.34659,478.05764,266.788,476.88455Zm-2.41142-4.24809c-.76072.8723-1.32562.99424-1.72874-.31745a28.80713,28.80713,0,0,0-1.13661-2.9116,3.72516,3.72516,0,0,0-4.70385-1.77874c-.97127.44794-.773,1.12066-.464,1.884a40.55708,40.55708,0,0,0,1.55812,3.96315c1.21293,2.27017.41837,2.92216-1.89824,2.90387-6.33321-.05041-11.27484-5.08421-11.43428-11.76059-.16412-6.87148,4.52235-12.20811,10.96053-12.48167,6.39835-.27153,11.48276,4.56961,11.833,11.27078.01483.28331.00193.56825.00193.85279A12.25006,12.25006,0,0,1,264.37653,472.63646Z" transform="translate(-0.10638 -0.10638)"/><path class="cls-7" d="M322.28388,477.65442c.04075-2.75185.01422-5.50451.01453-8.25717.0002-2.847.00549-5.69433-.00275-8.54169-.00274-.93815.16158-2.14254-1.10124-2.27465-1.21537-.12722-2.9433-.79588-3.515.83328-.54112,1.54217-.9729.84425-1.66431.32193a8.89879,8.89879,0,0,0-7.25185-1.72183c-4.63718.86986-7.76614,3.58878-8.85519,8.18033-1.15785,4.88179-.19,9.38839,4.05094,12.48127,3.87555,2.82664,8.06572,3.1006,12.169.22478.71083-.49793,1.05481-.8536,1.52206.38778.62119,1.65111,2.30685.96376,3.51195.85929C322.67846,480.01645,322.26945,478.62589,322.28388,477.65442ZM310.901,476.496a6.8052,6.8052,0,0,1-6.55077-7.13976c.01555-4.01558,2.87114-7.0231,6.63867-6.99262a6.72139,6.72139,0,0,1,6.57364,7.08164A6.85517,6.85517,0,0,1,310.901,476.496Z" transform="translate(-0.10638 -0.10638)"/><path class="cls-7" d="M365.595,457.89112a11.4589,11.4589,0,0,0-11.3408,11.46142,11.43276,11.43276,0,1,0,11.3408-11.46142Zm.23057,18.56094a6.75129,6.75129,0,0,1-6.72149-6.94384c-.0502-4.01761,2.72024-7.0731,6.47628-7.143a6.63281,6.63281,0,0,1,6.71042,6.89669C372.3383,473.26325,369.5392,476.37605,365.82553,476.45206Z" transform="translate(-0.10638 -0.10638)"/><path class="cls-1" d="M135.54305,465.62989q-3.34293-.00423-6.68552-.00905c.26928-2.00623,1.30518-3.58383,3.37527-3.53925C134.2118,462.12432,135.47058,463.48084,135.54305,465.62989Z" transform="translate(-0.10638 -0.10638)"/><path class="cls-1" d="M114.46968,465.66072q-3.09878.02694-6.19745.05359c-.07636-2.27376,1.13873-3.65005,3.28436-3.63787C113.6372,462.0882,114.66371,463.51411,114.46968,465.66072Z" transform="translate(-0.10638 -0.10638)"/><path class="cls-1" d="M163.52035,465.69q-3.1221.06509-6.24421.13046c-1.27966-2.182.7369-2.76117,1.89991-3.47334,1.36071-.83317,2.70185-.19644,3.67135.993A2.95123,2.95123,0,0,1,163.52035,465.69Z" transform="translate(-0.10638 -0.10638)"/><path class="cls-1" d="M173.80843,462.9386c1.55471,2.12,1.15516,4.382.48328,6.66282-1.69113,1.33007-3.47122,2.10287-5.32191.37486-1.45415-1.35777-1.54647-4.86992-.22357-6.5895C170.24162,461.44291,172.02642,462.03377,173.80843,462.9386Z" transform="translate(-0.10638 -0.10638)"/><path class="cls-4" d="M98.51209,460.59013a4.32573,4.32573,0,0,0-4.5565-3.47334c-1.88625-.02642-3.774.06341-5.6612.10162-.605,4.483-.14318,8.98638-.25191,13.47916a.71993.71993,0,0,0,.85543.83084l-.00224-.02033a10.36422,10.36422,0,0,0,.21157-4.16841c-.05446-1.51819.53361-1.9332,1.9706-1.90068a14.09977,14.09977,0,0,0,4.73251-.20812A3.862,3.862,0,0,0,98.51209,460.59013Zm-2.80926,3.47253-.00894.00447c-1.81471,1.128-3.80076.37355-5.7052.49468a.96829.96829,0,0,1-1.06009-1.05887c.08688-1.72224-.592-3.5274.50464-5.15006,1.32593,0,2.65673.07195,3.97646-.01829A3.39058,3.39058,0,0,1,97.098,460.395C97.73969,461.92418,96.8806,463.10744,95.70283,464.06266Z" transform="translate(-0.10638 -0.10638)"/><path class="cls-1" d="M191.94937,464.67833c1.271.69129,2.89807.96377,2.96422,2.941.07127,2.13067-1.59394,2.516-2.99587,3.20371a15.68016,15.68016,0,0,0-2.51864-.01851c-2.46168.36508-3.16721-.57816-3.18181-3.07008-.01494-2.55053.8066-3.38137,3.214-3.04225A16.66018,16.66018,0,0,0,191.94937,464.67833Z" transform="translate(-0.10638 -0.10638)"/><path class="cls-1" d="M186.37648,458.37589c1.49772-.00908,2.99544-.02206,4.49318-.026,1.37465-.00358,2.70246.238,3.28953,1.65072.67875,1.63332-.34688,2.62918-1.58794,3.45807a1.03206,1.03206,0,0,0-.52713.07436,12.38982,12.38982,0,0,1-5.67818-.07969l.02872.02659a9.30372,9.30372,0,0,1-.007-5.12371Z" transform="translate(-0.10638 -0.10638)"/></svg>