<svg id="Layer_1" data-name="Layer 1" xmlns="http://www.w3.org/2000/svg" viewBox="0 0 522.78723 522.78723"><defs><style>.cls-1{fill:#046b97;}.cls-2{fill:#fff;}.cls-3{fill:#fede00;}.cls-4{fill:#01415b;}.cls-5{fill:#a3cdda;}.cls-6{fill:#3f98ad;}</style></defs><title>skystone</title><rect class="cls-1" width="522.78723" height="522.78723"/><path class="cls-2" d="M14.528,326.34918l4.18528-8.99615H35.58012l-2.58319,5.99743c-.56554,1.313-.362,1.68727.91331,1.68727H45.66577c1.2761,0,1.79066-.37426,2.31643-1.68727l7.36863-18.402c.41274-1.03076.08972-1.313-1.15418-1.68726l-14.11106-4.77954c-7.2989-2.52934-10.50392-4.123-6.148-13.49344l6.84045-14.715c4.008-8.62189,9.38886-12.74493,16.63238-12.74493h20.0777c7.24351,0,9.19062,4.123,6.01677,12.74493L80.435,278.61288H64.90447l2.15042-5.34092c.528-1.31145.35458-1.68726-.7841-1.68726H56.91914c-1.138,0-1.62517.37581-2.18955,1.68726l-3.58987,8.34172c-.44358,1.03076-.31388,1.31145.98684,1.78083l13.68962,4.686c7.35364,2.43577,10.63694,4.123,7.2082,13.49343l-9.06556,24.77526c-3.15486,8.62189-8.78656,12.74492-17.40845,12.74492H21.34277C12.72166,339.0941,10.51678,334.97107,14.528,326.34918Z" transform="translate(-0.10638 -0.10638)"/><path class="cls-2" d="M200.30909,326.34918l.82721-8.99615h16.86689l-.34448,5.99743c-.07542,1.313.26779,1.68727,1.54313,1.68727h11.75554c1.27609,0,1.651-.37426,1.6866-1.68727l.49954-18.402c.028-1.03076-.4004-1.313-1.784-1.68726l-15.89516-4.77954c-8.24305-2.52934-12.043-4.123-11.18479-13.49344l1.34766-14.715c.78964-8.62189,4.63144-12.74493,11.875-12.74493h20.0777c7.24351,0,10.72966,4.123,10.77419,12.74493l.04308,8.33963H232.86664l.15675-5.34092c.03849-1.31145-.27523-1.68726-1.41391-1.68726h-9.35165c-1.138,0-1.48489.37581-1.55973,1.68726l-.47608,8.34172c-.05882,1.03076.17566,1.31145,1.65158,1.78083l15.4388,4.686c8.26288,2.43577,12.176,4.123,12.245,13.49343l.18254,24.77526c.06352,8.62189-4.02914,12.74492-12.651,12.74492h-25.2076C203.26022,339.0941,199.5163,334.97107,200.30909,326.34918Z" transform="translate(-0.10638 -0.10638)"/><path class="cls-2" d="M114.01992,339.0941l-7.18427-33.52657-9.47958,9.791L90.1035,339.0941H72.8605l27.67826-81.56578h14.48768L105.448,288.87591l25.56174-31.34759h16.14051l-26.21065,33.1392,11.63478,48.42658Z" transform="translate(-0.10638 -0.10638)"/><path class="cls-2" d="M160.54,302.79129l-9.39292-45.263h16.06255l4.44025,27.83206,13.511-27.83206h15.90467l-24.16122,45.263-5.29593,36.30281H153.99113Z" transform="translate(-0.10638 -0.10638)"/><path class="cls-2" d="M270.50079,272.52189H256.24023l-.34343-14.99357h42.35984l1.82432,14.99357H285.8204l5.96131,66.57221H274.16446Z" transform="translate(-0.10638 -0.10638)"/><path class="cls-2" d="M315.18613,326.34918l-7.787-56.07593c-1.19728-8.62189,1.69438-12.74493,8.93789-12.74493H338.462c7.24352,0,11.69884,4.123,13.77142,12.74493l13.47987,56.07593c2.07258,8.62189-1.05934,12.74492-9.68045,12.74492H329.7001C321.079,339.0941,316.38341,334.97107,315.18613,326.34918Zm31.32567-1.8744c1.27389,0,1.56113-.37425,1.29114-1.6857L337.72462,273.8349c-.27031-1.313-.6732-1.68726-1.81265-1.68726H324.43144c-1.13945,0-1.40041.37425-1.17276,1.68726l8.48759,48.95418c.22737,1.31145.65655,1.6857,1.93044,1.6857Z" transform="translate(-0.10638 -0.10638)"/><path class="cls-2" d="M360.87329,257.52832h16.06519l31.42927,42.84441L393.6273,257.52832h14.33045l30.7878,81.56578h-17.2469l-35.45471-45.56243,13.71833,45.56243H382.7064Z" transform="translate(-0.10638 -0.10638)"/><path class="cls-2" d="M420.9289,257.52832h38.7384l7.28084,14.61932H442.19662l4.39052,9.92838h14.13365l6.83206,14.43219H452.96933l12.36735,27.96657h27.67189l7.28084,14.61932H454.18359Z" transform="translate(-0.10638 -0.10638)"/><path class="cls-3" d="M336.34976,154.61874a7.78837,7.78837,0,0,1,1.21977,2.39589c1.03757,3.504-1.08141,6.93544-5.55564,8.31489-5.49927,1.69548-12.47411-.351-15.57873-4.57091-2.88763-3.925-1.41012-8.34775,3.23537-10.31107a11.62152,11.62152,0,0,1,1.1005-.39971C326.2703,148.35235,333.24513,150.39882,336.34976,154.61874Z" transform="translate(-0.10638 -0.10638)"/><path class="cls-4" d="M331.96131,160.826a38.96818,38.96818,0,0,1-16.70617.363,17.87022,17.87022,0,0,0,17.87039,5.06724c4.54062-1.44629,6.97142-4.86179,6.74869-8.65934A27.4218,27.4218,0,0,1,331.96131,160.826Z" transform="translate(-0.10638 -0.10638)"/><line class="cls-4" x1="328.35056" y1="163.34307" x2="332.3295" y2="172.93192"/><path class="cls-4" d="M332.43606,173.33457a.359.359,0,0,1-.33775-.19963l-3.979-9.58861a.2872.2872,0,0,1,.22121-.3767.37692.37692,0,0,1,.45429.18343l3.979,9.58861a.28718.28718,0,0,1-.22121.37669A.42929.42929,0,0,1,332.43606,173.33457Z" transform="translate(-0.10638 -0.10638)"/><path class="cls-4" d="M332.43607,174.00187a1.16862,1.16862,0,0,1-1.09866-.64937l-3.97894-9.58906a.8101.8101,0,0,1,.05423-.7367,1.1138,1.1138,0,0,1,.66721-.48841,1.23612,1.23612,0,0,1,1.4759.59724l3.97893,9.58906a.93611.93611,0,0,1-.72066,1.22478A1.37377,1.37377,0,0,1,332.43607,174.00187Z" transform="translate(-0.10638 -0.10638)"/><polygon class="cls-4" points="347.017 172.887 367.868 210.539 335.507 210.539 321.066 172.932 347.017 172.887"/><polygon class="cls-4" points="316.218 211.233 306.356 181.253 304.316 190.996 310.304 211.223 316.218 211.233"/><polygon class="cls-4" points="321.066 172.932 310.512 206.405 325.358 211.223 336.826 211.536 321.066 172.932"/><polygon class="cls-5" points="376.986 211.148 359.645 181.253 327.04 181.253 338.511 211.9 376.986 211.148"/><polygon class="cls-4" points="217.855 128.685 201.024 210.539 301.827 210.539 281.634 128.685 217.855 128.685"/><polygon class="cls-4" points="127.523 211.536 154.559 159.507 172.775 159.507 183.472 167.864 177.356 183.834 165.616 211.536 127.523 211.536"/><polygon class="cls-6" points="118.471 211.223 133.18 186.653 145.209 186.653 133.533 211.223 118.471 211.223"/><polygon class="cls-4" points="169.406 156.342 204.893 156.342 210.702 177.07 176.951 177.07 169.406 156.342"/><polygon class="cls-4" points="188.376 167.184 192.091 173.296 186.14 173.024 188.376 167.184"/><polygon class="cls-6" points="180.584 159.652 196.029 159.652 193.921 166.264 178.239 166.24 180.584 159.652"/><polygon class="cls-4" points="210.759 135.442 217.855 165.376 212.09 182.458 204.893 156.342 210.759 135.442"/><polygon class="cls-3" points="179.763 135.421 210.759 135.421 204.893 156.342 169.406 156.342 179.763 135.421"/><polygon class="cls-5" points="160.763 169.612 219.341 169.612 213.23 211.241 140.943 211.223 160.763 169.612"/><polygon class="cls-4" points="274.066 133.446 268.008 171.688 269.29 211.327 288.249 211.332 274.066 133.446"/><polygon class="cls-4" points="111.994 213.491 384.791 213.491 302.601 237.661 195.138 237.661 111.994 213.491"/><polygon class="cls-6" points="330.779 211.536 302.09 133.446 271.328 133.446 283.128 211.332 330.779 211.536"/><polygon class="cls-4" points="231.848 139.407 237.849 170.989 234.984 211.241 222.709 211.223 231.848 139.407"/><polygon class="cls-5" points="263.004 117.376 260.509 117.376 236.234 117.376 233.577 117.376 223.327 211.241 273.703 211.327 263.004 117.376"/><polygon class="cls-3" points="261.141 103.606 258.646 103.606 238.034 103.606 235.376 103.606 234.477 110.491 237.134 110.491 259.578 110.491 262.073 110.491 261.141 103.606"/><polygon class="cls-4" points="262.073 110.491 259.578 110.491 237.134 110.491 234.477 110.491 233.577 117.376 236.234 117.376 260.509 117.376 263.004 117.376 262.073 110.491"/><polygon class="cls-5" points="384.791 213.491 383.176 209.582 113.919 209.582 111.994 213.491 384.791 213.491"/><polygon class="cls-3" points="238.425 100.608 238.034 103.606 258.646 103.606 258.24 100.608 238.425 100.608"/><path class="cls-2" d="M451.46921,391.957a1.37449,1.37449,0,0,0-1.35695-.99182h-3.75847a1.37485,1.37485,0,0,0-1.35744.99182l-6.10748,16.65191-6.264-16.65191a1.37457,1.37457,0,0,0-1.3572-.99182h-3.7062a1.37456,1.37456,0,0,0-1.35719.99182l-6.15975,16.65191L413.885,391.957a1.37485,1.37485,0,0,0-1.35744-.99182h-3.70645a1.37475,1.37475,0,0,0-1.35719.99182l-6.21177,16.65191-6.1595-16.65191a1.37524,1.37524,0,0,0-1.35744-.99182h-3.75847a1.375,1.375,0,0,0-1.35744.99182l-8.71709,22.81166a.849.849,0,0,0,.835,1.25266h3.34108a1.34711,1.34711,0,0,0,1.35694-.93931l6.42084-17.22634,6.42083,17.22634a1.32758,1.32758,0,0,0,1.35694.93931h3.08a1.32767,1.32767,0,0,0,1.35719-.93931l6.57714-17.22634,6.36857,17.22634a1.391,1.391,0,0,0,1.35719.93931h3.23655a1.39084,1.39084,0,0,0,1.35719-.93931l6.42083-17.22634,6.52512,17.22634a1.32721,1.32721,0,0,0,1.35695.93931h3.08a1.32767,1.32767,0,0,0,1.35719-.93931l6.47286-17.12181L454.5492,415.082a1.34713,1.34713,0,0,0,1.357.93931h3.44561a.849.849,0,0,0,.835-1.25266Z" transform="translate(-0.10638 -0.10638)"/><path class="cls-2" d="M350.88615,410.48822c-.62646-.835-1.25266-.57419-1.82685-.26084a9.31715,9.31715,0,0,1-4.75054,1.5135c-4.54123,0-7.569-3.60167-7.569-8.24768s3.02773-8.29994,7.569-8.29994a9.21392,9.21392,0,0,1,4.85483,1.514,1.20035,1.20035,0,0,0,1.82709-.20882l1.46148-2.03567a1.119,1.119,0,0,0-.26109-1.72305,13.27941,13.27941,0,0,0-8.03886-2.50532c-7.778,0-12.9457,5.74187-12.9457,13.25881,0,7.51719,5.16768,13.207,12.9457,13.207a13.27813,13.27813,0,0,0,8.03886-2.50581,1.097,1.097,0,0,0,.26109-1.72256Z" transform="translate(-0.10638 -0.10638)"/><path class="cls-2" d="M315.70272,390.96513H312.623a1.21427,1.21427,0,0,0-1.20064,1.2004v2.08842a9.76972,9.76972,0,0,0-8.19541-4.01956c-6.7862,0-12.6326,5.37675-12.6326,13.20679,0,7.93458,5.8464,13.25881,12.58009,13.25881a9.87057,9.87057,0,0,0,8.24792-4.01906v2.19221a1.20479,1.20479,0,0,0,1.20064,1.14813h3.07975a1.15847,1.15847,0,0,0,1.14862-1.14813V392.16553A1.17061,1.17061,0,0,0,315.70272,390.96513Zm-11.90161,20.72373c-4.48946,0-7.67349-3.65418-7.67349-8.19541,0-4.59374,3.184-8.1434,7.67349-8.1434,4.43694,0,7.67349,3.54966,7.67349,8.1434C311.4746,408.03468,308.23805,411.68886,303.80111,411.68886Z" transform="translate(-0.10638 -0.10638)"/><path class="cls-2" d="M240.42928,378.38455a19.15813,19.15813,0,0,0,0,38.31569,19.6444,19.6444,0,0,0,5.19725-.69762l2.05885,5.34338a1.34554,1.34554,0,0,0,1.40922.9398h3.28869c.783,0,1.35707-.52217.9917-1.514l-2.6815-6.99207a19.24125,19.24125,0,0,0-10.26421-35.39519Zm8.29393,30.25818-2.39526-6.24564a1.5119,1.5119,0,0,0-1.566-.99182H241.6298a1.02854,1.02854,0,0,0-1.04384,1.514l3.16465,8.21382a13.801,13.801,0,0,1-3.32133.39923c-7.72576,0-13.20679-6.05546-13.20679-13.99s5.481-13.98955,13.20679-13.98955c7.72551,0,13.20679,6.055,13.20679,13.98955A14.1425,14.1425,0,0,1,248.72321,408.64273Z" transform="translate(-0.10638 -0.10638)"/><path class="cls-2" d="M285.84378,390.96513h-3.0795a1.19435,1.19435,0,0,0-1.14838,1.14838v12.998c0,4.01955-2.50581,6.89048-6.73418,6.89048-4.33266,0-6.525-2.7664-6.525-6.94275v-12.9457a1.1585,1.1585,0,0,0-1.14849-1.14838h-3.07988a1.20491,1.20491,0,0,0-1.20064,1.14838V405.947c0,6.42059,4.01968,10.75325,10.5448,10.75325,3.915,0,6.57714-1.56626,8.14339-3.863v2.08793a1.14808,1.14808,0,0,0,1.14838,1.09636h3.0795a1.20492,1.20492,0,0,0,1.20089-1.14862V392.16577A1.21421,1.21421,0,0,0,285.84378,390.96513Z" transform="translate(-0.10638 -0.10638)"/><path class="cls-2" d="M326.50848,379.06327h-3.08a1.25105,1.25105,0,0,0-1.20064,1.20064v34.557a1.25127,1.25127,0,0,0,1.20064,1.20088h3.08a1.16965,1.16965,0,0,0,1.14837-1.20088v-34.557A1.16944,1.16944,0,0,0,326.50848,379.06327Z" transform="translate(-0.10638 -0.10638)"/><path class="cls-2" d="M366.96412,390.28666a13.20677,13.20677,0,1,0,13.15427,13.20679A13.04639,13.04639,0,0,0,366.96412,390.28666Zm0,21.34994c-4.48946,0-7.6735-3.60192-7.6735-8.14315,0-4.59374,3.184-8.1434,7.6735-8.1434,4.4892,0,7.67324,3.54966,7.67324,8.1434C374.63736,408.03468,371.45332,411.6366,366.96412,411.6366Z" transform="translate(-0.10638 -0.10638)"/><path class="cls-2" d="M52.60566,404.39329V390.90507h4.97463a4.29828,4.29828,0,0,1,0,8.59458H55.3154v4.89364Zm6.41048-9.18086a1.735,1.735,0,0,0-1.75941-1.92119H55.3154v3.84238h1.94133A1.7454,1.7454,0,0,0,59.01614,395.21243Z" transform="translate(-0.10638 -0.10638)"/><path class="cls-2" d="M70.50495,404.39329l-2.08276-4.87349H66.94584v4.87349H64.2361V390.90507h5.03547a4.01324,4.01324,0,0,1,4.14539,4.26667c0,2.32573-1.25373,3.49867-2.38618,3.86253l2.48731,5.359Zm.14163-9.18086a1.735,1.735,0,0,0-1.75941-1.92119H66.94584v3.84238h1.94133A1.735,1.735,0,0,0,70.64658,395.21243Z" transform="translate(-0.10638 -0.10638)"/><path class="cls-2" d="M76.23059,404.39329V390.90507h7.7452v2.38617H78.94033v3.05344h4.89383v2.366H78.94033v3.2964h5.03546v2.38618Z" transform="translate(-0.10638 -0.10638)"/><path class="cls-2" d="M85.93984,402.87664l1.31457-2.10331a4.4076,4.4076,0,0,0,3.27586,1.4562c1.23358,0,1.86055-.66726,1.86055-1.4965,0-2.38617-6.04643-1.53679-6.04643-6.10727,0-2.12306,1.65827-3.94311,4.4488-3.94311a5.94233,5.94233,0,0,1,4.10529,1.49649l-1.27408,2.06262a4.11589,4.11589,0,0,0-2.89186-1.15279c-.99081,0-1.61778.56613-1.61778,1.37521,0,2.12346,6.02628,1.51665,6.02628,6.04643,0,2.34588-1.59763,4.12525-4.59042,4.12525A6.16432,6.16432,0,0,1,85.93984,402.87664Z" transform="translate(-0.10638 -0.10638)"/><path class="cls-2" d="M97.71191,404.39329V390.90507h7.7452v2.38617h-5.03546v3.05344h4.89383v2.366h-4.89383v3.2964h5.03546v2.38618Z" transform="translate(-0.10638 -0.10638)"/><path class="cls-2" d="M115.611,404.39329l-4.63092-8.23034v8.23034h-2.70973V390.90507h2.75023l4.46914,7.92692v-7.92692h2.70973v13.48822Z" transform="translate(-0.10638 -0.10638)"/><path class="cls-2" d="M123.66257,404.39329v-11.102h-3.01314v-2.38617h8.736v2.38617h-3.01314v11.102Z" transform="translate(-0.10638 -0.10638)"/><path class="cls-2" d="M131.83483,404.39329V390.90507H139.58v2.38617h-5.03546v3.05344h4.89383v2.366h-4.89383v3.2964H139.58v2.38618Z" transform="translate(-0.10638 -0.10638)"/><path class="cls-2" d="M142.39327,404.39329V390.90507h4.34786c3.78154,0,5.92515,2.831,5.92515,6.75438,0,3.94312-2.14361,6.73384-5.905,6.73384Zm7.48229-6.73384c0-2.68959-1.07181-4.36821-3.11428-4.36821H145.103v8.71587h1.63813C148.76326,402.00711,149.87556,400.2479,149.87556,397.65945Z" transform="translate(-0.10638 -0.10638)"/><path class="cls-2" d="M160.355,404.39329V390.90507h5.60159a3.284,3.284,0,0,1,3.57927,3.43783,2.97918,2.97918,0,0,1-2.18391,3.09413,3.19467,3.19467,0,0,1,2.40652,3.296,3.35479,3.35479,0,0,1-3.62,3.66026Zm6.41048-9.5854a1.366,1.366,0,0,0-1.456-1.51665h-2.24475v3.05344h2.24475A1.36319,1.36319,0,0,0,166.76546,394.80789Zm.22242,5.56129a1.51781,1.51781,0,0,0-1.57729-1.65847h-2.34588v3.2964h2.34588A1.45553,1.45553,0,0,0,166.98788,400.36918Z" transform="translate(-0.10638 -0.10638)"/><path class="cls-2" d="M174.89782,404.39329V398.832l-4.20623-7.92692h2.9928l2.5683,5.41946,2.54795-5.41946h2.9928l-4.18589,7.92692v5.5613Z" transform="translate(-0.10638 -0.10638)"/><path class="cls-2" d="M501.65289,338.36867l.34209-.438a1.88283,1.88283,0,0,0,1.43023.657c.81466,0,1.0745-.438,1.0745-.79388,0-1.17709-2.70324-.5201-2.70324-2.14884,0-.75276.6708-1.273,1.5741-1.273a2.14566,2.14566,0,0,1,1.61509.64333l-.34209.4175a1.72317,1.72317,0,0,0-1.321-.54756c-.54059,0-.93761.29442-.93761.72543,0,1.02654,2.70324.438,2.70324,2.14216,0,.657-.45165,1.3413-1.68338,1.3413A2.27088,2.27088,0,0,1,501.65289,338.36867Z" transform="translate(-0.10638 -0.10638)"/><path class="cls-2" d="M509.83846,339.012v-3.83935L508.292,339.012h-.2328l-1.55347-3.83935V339.012h-.56791v-4.56478h.81437l1.42326,3.51775,1.41687-3.51775h.81437V339.012Z" transform="translate(-0.10638 -0.10638)"/></svg>