<?xml version="1.0" encoding="utf-8"?>
<!-- Generator: Adobe Illustrator 19.2.1, SVG Export Plug-In . SVG Version: 6.00 Build 0)  -->
<svg version="1.1" id="layer" xmlns="http://www.w3.org/2000/svg" xmlns:xlink="http://www.w3.org/1999/xlink" x="0px" y="0px"
	 viewBox="0 0 652 652" style="enable-background:new 0 0 652 652;" xml:space="preserve">
<style type="text/css">
	.st0{fill:#2566AF;}
	.st1{fill:#CC2229;}
	.st2{fill:#DA7D31;}
</style>
<g>
	<path class="st0" d="M106.7,553.7c-2.8,9.8-3.8,12.7-6,15.5c-3,4.2-8.7,6.8-14.2,6.8c-10.4,0-16.2-6.4-20.8-22.1L34.9,446.6h28.1
		l23.4,90.1l24.2-90.1h27.4L106.7,553.7z"/>
	<path class="st0" d="M266,510.6c0,34.9-29.5,64-65,64c-36.1,0-65.2-29.1-65.2-65.2c0-36.1,29.1-65,65.6-65
		C237.4,444.5,266,473.8,266,510.6 M161.5,509.5c0,22.3,17.6,40.2,39.5,40.2c21.3,0,39.3-18.1,39.3-39.5c0-22.5-17.6-40.8-39.1-40.8
		C179.1,469.5,161.5,487.2,161.5,509.5"/>
	<path class="st0" d="M278.6,473.1c0-13.2,1.3-17.6,6.8-21.9c4.7-3.8,7.6-4.5,18.9-4.5h13.4c10.8,0,17.4,1.9,24.6,6.8
		c9.8,6.8,15.3,17,15.3,29.1c0,10.6-3.8,18.7-12.7,26.8c10.2,2.8,14,9.3,14,22.9v40.4H333v-38c0-8.7-2.6-10.8-13.4-10.6
		c-9.8,0.6-14.4-2.6-15.3-10.4v58.9h-25.7V473.1z M304.3,510.6c0.6-8.1,4.3-11.1,13.8-11.9c8.9-0.8,13.6-5.7,13.6-13.8
		c0-8.7-5.5-13.4-15.9-13.4h-11.5V510.6z"/>
	<polygon class="st0" points="442.2,471.2 418.4,471.2 418.4,572.6 392.7,572.6 392.7,471.2 369.1,471.2 369.1,446.6 442.2,446.6 	
		"/>
	<path class="st0" d="M512.7,471.2h-37.2V495H510v24h-34.6v28.9h37.2v24.7h-36.8c-11.5,0-16.8-1.9-21.2-7.4
		c-3.4-4.3-4.9-10-4.9-19.3v-72.7c0-10.6,2.1-17.2,6.8-21.5c4.3-4,8.9-5.1,19.3-5.1h36.8V471.2z"/>
	<path class="st0" d="M588.6,572.6l-14.2-29.7c-1.1-1.9-2.5-4.7-4.2-8.5l-1.1,2.5l-3,6.2l-13.2,29.5h-30.2l33.3-66.9l-30.2-59.1
		h29.8l9.1,19.8c0.8,1.5,1.5,3.2,2.3,4.9c1.9,4.2,2.3,4.7,3.4,7.6l1.1-2.5c1.5-3.4,3-6.8,4.5-10l8.5-19.8h30l-30,59.1l33.6,66.9
		H588.6z"/>
	<path class="st0" d="M48.7,403.3c-2.8,9.8-3.8,12.7-6,15.5c-3,4.2-8.7,6.8-14.2,6.8c-10.4,0-16.2-6.4-20.8-22.1l-30.8-107.3H5
		l23.4,90.1l24.2-90.1H80L48.7,403.3z"/>
	<path class="st0" d="M152.9,320.8h-37.2v23.8h34.6v24h-34.6v28.9h37.2v24.8h-36.8c-11.5,0-16.8-1.9-21.2-7.4
		c-3.4-4.3-4.9-10-4.9-19.3v-72.7c0-10.6,2.1-17.2,6.8-21.5c4.3-4,8.9-5.1,19.3-5.1h36.8V320.8z"/>
	<path class="st0" d="M200.1,422.2c-18.9,0-25.9-7.4-25.9-26.6v-99.4H200v101.3h36.8v24.7H200.1z"/>
	<path class="st0" d="M367.3,360.2c0,34.9-29.5,64-65,64c-36.1,0-65.2-29.1-65.2-65.2c0-36.1,29.1-65,65.5-65
		C338.8,294.1,367.3,323.4,367.3,360.2 M262.9,359.1c0,22.3,17.6,40.2,39.5,40.2c21.3,0,39.3-18.1,39.3-39.5
		c0-22.5-17.6-40.8-39.1-40.8C280.4,319.1,262.9,336.8,262.9,359.1"/>
	<path class="st0" d="M446.5,320.6c-11.9,0-18.5,1.9-25.9,7.2c-10,7.2-16.2,19.3-16.2,31.7s6,24,16.6,31.4c7.7,5.5,14,7.2,26.3,7.2
		h7.4v24.2h-7.4c-17.4,0-25.7-1.9-37-8.3c-19.5-11.3-31.4-31.9-31.4-54.6c0-22.7,11.7-43.1,31-54.4c10.8-6.4,20.2-8.7,36.1-8.7h8.7
		v24.4H446.5z"/>
	<rect x="473" y="296.2" class="st0" width="25.7" height="126"/>
	<polygon class="st0" points="583.2,320.8 559.4,320.8 559.4,422.2 533.7,422.2 533.7,320.8 510.1,320.8 510.1,296.2 583.2,296.2 	
		"/>
	<polygon class="st0" points="616,422.2 616,367.6 582.6,296.2 610.6,296.2 629.3,339.8 648.9,296.2 676.1,296.2 641.5,367.6 
		641.5,422.2 	"/>
	<path class="st0" d="M626.6,452.6c-0.2-2.2-1.7-3.1-3.8-3.1c-1.7,0-3.4,0.6-3.4,2.6c0,1.9,2.4,2.1,4.9,2.7c2.4,0.6,4.8,1.4,4.8,4.4
		c0,3.2-3.2,4.5-5.9,4.5c-3.4,0-6.3-1.7-6.3-5.3h1.9c0,2.5,2.1,3.6,4.4,3.6c1.8,0,3.8-0.6,3.8-2.8c0-2.1-2.4-2.4-4.8-3
		c-2.4-0.5-4.9-1.2-4.9-4c0-3.1,2.7-4.4,5.5-4.4c3.1,0,5.5,1.5,5.6,4.8H626.6z"/>
	<polygon class="st0" points="631.8,448.1 634.6,448.1 639.4,460.9 644.2,448.1 646.9,448.1 646.9,463.3 645,463.3 645,450.7 
		645,450.7 640.2,463.3 638.5,463.3 633.8,450.7 633.8,450.7 633.8,463.3 631.8,463.3 	"/>
	<path class="st1" d="M293.2,265.4c-4.4-6.9-6.7-15.4-6.7-25c0-40,34.7-72.5,77.4-72.5c20.6,0,40.6,8.7,56.3,24.4
		c20,20,31.5,49.6,31.5,81.1c0,0.7,0,1.5-0.1,2.2h41.6c-1.1-45-15.8-82.9-42.7-109.8c-29.5-29.5-67.1-40-92.4-40
		c-29.4,0-56.8,10.6-75.3,29c-14.2,14.2-22,32.1-22,50.5c0,19.4,7.2,37.3,20.4,50.4C284.9,259.6,288.9,262.8,293.2,265.4"/>
	<path class="st0" d="M401.4,275.7h42c0-0.8,0-1.6,0-2.4c0-29.4-10.6-56.8-29-75.3c-14.2-14.2-32.1-22-50.5-22
		c-19.4,0-37.3,7.2-50.4,20.4c-3.7,3.7-6.9,7.7-9.5,12c6.9-4.4,15.4-6.7,25-6.7C367.9,201.6,399.7,234.5,401.4,275.7"/>
	<path class="st1" d="M360,275.7h33.4c-0.8-18.1-7.9-34.7-20.3-47.2c-3.7-3.7-7.7-6.9-12-9.5c4.4,6.9,6.7,15.4,6.7,25
		C367.7,255.4,364.9,266.1,360,275.7"/>
	<path class="st1" d="M220.8,275.7c-11.8-18.3-18.3-40.9-18.3-64.7c0-25.5,10.7-62,37.5-93c3.5-4.1,5.7-9.4,5.7-15.2
		c0-12.8-10.4-23.2-23.2-23.2c-6.3,0-12.2,2.6-16.3,6.7c-3.4,3.4-6.4,7.2-9.4,11c-33.3,43.2-35.8,92-35.8,105.9
		c0,26.9,4.7,51.3,13.9,72.5H220.8z"/>
	<path class="st0" d="M294.9,275.7c-24.8-12.3-42.1-39.1-42.1-70.2c0-20.6,8.7-40.6,24.4-56.3c20-20,49.6-31.5,81.1-31.5
		c25.5,0,62,10.8,93,37.5c4.1,3.5,9.4,5.6,15.2,5.6c12.8,0,23.2-10.4,23.2-23.2c0-6.3-2.6-12.2-6.7-16.3c-3.4-3.4-7.2-6.4-11-9.4
		C428.9,78.6,380.1,76,366.2,76c-47.5,0-87.3,14.8-115.4,42.8c-29.5,29.5-40,67.1-40,92.4c0,24.1,7.1,46.9,19.9,64.5H294.9z"/>
	<path class="st2" d="M304,242.8c0-14,11.4-25.4,25.4-25.4c14,0,25.4,11.4,25.4,25.4c0,14-11.4,25.4-25.4,25.4
		C315.3,268.2,304,256.8,304,242.8"/>
</g>
</svg>
